<?xml version="1.0" encoding="utf-8" standalone="no"?>
<!DOCTYPE svg PUBLIC "-//W3C//DTD SVG 1.1//EN"
  "http://www.w3.org/Graphics/SVG/1.1/DTD/svg11.dtd">
<svg xmlns:xlink="http://www.w3.org/1999/xlink" width="596.8pt" height="337.6pt" viewBox="0 0 596.8 337.6" xmlns="http://www.w3.org/2000/svg" version="1.1">
 <metadata>
  <rdf:RDF xmlns:dc="http://purl.org/dc/elements/1.1/" xmlns:cc="http://creativecommons.org/ns#" xmlns:rdf="http://www.w3.org/1999/02/22-rdf-syntax-ns#">
   <cc:Work>
    <dc:type rdf:resource="http://purl.org/dc/dcmitype/StillImage"/>
    <dc:date>2026-06-11T00:25:11.675888</dc:date>
    <dc:format>image/svg+xml</dc:format>
    <dc:creator>
     <cc:Agent>
      <dc:title>Matplotlib v3.8.2, https://matplotlib.org/</dc:title>
     </cc:Agent>
    </dc:creator>
   </cc:Work>
  </rdf:RDF>
 </metadata>
 <defs>
  <style type="text/css">*{stroke-linejoin: round; stroke-linecap: butt}</style>
 </defs>
 <g id="figure_1">
  <g id="patch_1">
   <path d="M 0 337.6 
L 596.8 337.6 
L 596.8 0 
L 0 0 
z
" style="fill: #ffffff"/>
  </g>
  <g id="axes_1">
   <g id="patch_2">
    <path d="M 73.0112 149.408 
L 220.9408 149.408 
Q 231.424 149.408 231.424 143.5904 
L 231.424 90.5856 
Q 231.424 84.768 220.9408 84.768 
L 73.0112 84.768 
Q 62.528 84.768 62.528 90.5856 
L 62.528 143.5904 
Q 62.528 149.408 73.0112 149.408 
z
" clip-path="url(#pa8aee6f035)" style="fill: #fef3c7; stroke: #2d3748; stroke-width: 1.25; stroke-linejoin: miter"/>
   </g>
   <g id="patch_3">
    <path d="M 73.0112 239.904 
L 220.9408 239.904 
Q 231.424 239.904 231.424 234.0864 
L 231.424 187.5456 
Q 231.424 181.728 220.9408 181.728 
L 73.0112 181.728 
Q 62.528 181.728 62.528 187.5456 
L 62.528 234.0864 
Q 62.528 239.904 73.0112 239.904 
z
" clip-path="url(#pa8aee6f035)" style="fill: #fde68a; stroke: #2d3748; stroke-width: 1.25; stroke-linejoin: miter"/>
   </g>
   <g id="patch_4">
    <path d="M 358.3872 121.936 
L 494.6688 121.936 
Q 505.152 121.936 505.152 116.1184 
L 505.152 79.2736 
Q 505.152 73.456 494.6688 73.456 
L 358.3872 73.456 
Q 347.904 73.456 347.904 79.2736 
L 347.904 116.1184 
Q 347.904 121.936 358.3872 121.936 
z
" clip-path="url(#pa8aee6f035)" style="fill: #e0f2fe; stroke: #2d3748; stroke-width: 1.25; stroke-linejoin: miter"/>
   </g>
   <g id="patch_5">
    <path d="M 346.7392 193.04 
L 506.3168 193.04 
Q 516.8 193.04 516.8 187.2224 
L 516.8 137.4496 
Q 516.8 131.632 506.3168 131.632 
L 346.7392 131.632 
Q 336.256 131.632 336.256 137.4496 
L 336.256 187.2224 
Q 336.256 193.04 346.7392 193.04 
z
" clip-path="url(#pa8aee6f035)" style="fill: #dbeafe; stroke: #2d3748; stroke-width: 1.25; stroke-linejoin: miter"/>
   </g>
   <g id="patch_6">
    <path d="M 346.7392 262.528 
L 506.3168 262.528 
Q 516.8 262.528 516.8 256.7104 
L 516.8 210.1696 
Q 516.8 204.352 506.3168 204.352 
L 346.7392 204.352 
Q 336.256 204.352 336.256 210.1696 
L 336.256 256.7104 
Q 336.256 262.528 346.7392 262.528 
z
" clip-path="url(#pa8aee6f035)" style="fill: #bfdbfe; stroke: #2d3748; stroke-width: 1.25; stroke-linejoin: miter"/>
   </g>
   <g id="patch_7">
    <path d="M 146.976 146.562641 
Q 146.976 163.954315 146.976 179.780742 
" clip-path="url(#pa8aee6f035)" style="fill: none; stroke: #4a5568; stroke-width: 1.4; stroke-linecap: round"/>
    <path d="M 149.376 174.980742 
L 146.976 179.780742 
L 144.576 174.980742 
z
" clip-path="url(#pa8aee6f035)" style="fill: #4a5568; stroke: #4a5568; stroke-width: 1.4; stroke-linecap: round"/>
   </g>
   <g id="patch_8">
    <path d="M 426.528 119.088273 
Q 426.528 125.167345 426.528 129.68117 
" clip-path="url(#pa8aee6f035)" style="fill: none; stroke: #4a5568; stroke-width: 1.4; stroke-linecap: round"/>
    <path d="M 428.928 124.88117 
L 426.528 129.68117 
L 424.128 124.88117 
z
" clip-path="url(#pa8aee6f035)" style="fill: #4a5568; stroke: #4a5568; stroke-width: 1.4; stroke-linecap: round"/>
   </g>
   <g id="patch_9">
    <path d="M 426.528 190.194641 
Q 426.528 197.889517 426.528 204.019146 
" clip-path="url(#pa8aee6f035)" style="fill: none; stroke: #4a5568; stroke-width: 1.4; stroke-linecap: round"/>
    <path d="M 428.928 199.219146 
L 426.528 204.019146 
L 424.128 199.219146 
z
" clip-path="url(#pa8aee6f035)" style="fill: #4a5568; stroke: #4a5568; stroke-width: 1.4; stroke-linecap: round"/>
   </g>
   <g id="patch_10">
    <path d="M 360.645765 161.499017 
Q 298.627746 133.156508 232.072358 130.170265 
" clip-path="url(#pa8aee6f035)" style="fill: none; stroke: #2563eb; stroke-width: 1.4; stroke-linecap: round"/>
    <path d="M 236.759957 132.783005 
L 232.072358 130.170265 
L 236.97511 127.98783 
z
" clip-path="url(#pa8aee6f035)" style="fill: #2563eb; stroke: #2563eb; stroke-width: 1.4; stroke-linecap: round"/>
   </g>
   <g id="patch_11">
    <path d="M 224.687926 210.793109 
Q 286.032683 210.277439 341.67671 232.131409 
" clip-path="url(#pa8aee6f035)" style="fill: none; stroke: #4b5563; stroke-width: 1.4; stroke-linecap: round"/>
    <path d="M 338.086284 228.142819 
L 341.67671 232.131409 
L 336.331583 232.610595 
z
" clip-path="url(#pa8aee6f035)" style="fill: #4b5563; stroke: #4b5563; stroke-width: 1.4; stroke-linecap: round"/>
   </g>
   <g id="text_1">
    <!-- F2. State pool vs short-term narrative slot -->
    <g style="fill: #111827" transform="translate(18.848 29.246125) scale(0.12 -0.12)">
     <defs>
      <path id="DejaVuSans-Bold-46" d="M 588 4666 
L 3834 4666 
L 3834 3756 
L 1791 3756 
L 1791 2888 
L 3713 2888 
L 3713 1978 
L 1791 1978 
L 1791 0 
L 588 0 
L 588 4666 
z
" transform="scale(0.015625)"/>
      <path id="DejaVuSans-Bold-32" d="M 1844 884 
L 3897 884 
L 3897 0 
L 506 0 
L 506 884 
L 2209 2388 
Q 2438 2594 2547 2791 
Q 2656 2988 2656 3200 
Q 2656 3528 2436 3728 
Q 2216 3928 1850 3928 
Q 1569 3928 1234 3808 
Q 900 3688 519 3450 
L 519 4475 
Q 925 4609 1322 4679 
Q 1719 4750 2100 4750 
Q 2938 4750 3402 4381 
Q 3866 4013 3866 3353 
Q 3866 2972 3669 2642 
Q 3472 2313 2841 1759 
L 1844 884 
z
" transform="scale(0.015625)"/>
      <path id="DejaVuSans-Bold-2e" d="M 653 1209 
L 1778 1209 
L 1778 0 
L 653 0 
L 653 1209 
z
" transform="scale(0.015625)"/>
      <path id="DejaVuSans-Bold-20" transform="scale(0.015625)"/>
      <path id="DejaVuSans-Bold-53" d="M 3834 4519 
L 3834 3531 
Q 3450 3703 3084 3790 
Q 2719 3878 2394 3878 
Q 1963 3878 1756 3759 
Q 1550 3641 1550 3391 
Q 1550 3203 1689 3098 
Q 1828 2994 2194 2919 
L 2706 2816 
Q 3484 2659 3812 2340 
Q 4141 2022 4141 1434 
Q 4141 663 3683 286 
Q 3225 -91 2284 -91 
Q 1841 -91 1394 -6 
Q 947 78 500 244 
L 500 1259 
Q 947 1022 1364 901 
Q 1781 781 2169 781 
Q 2563 781 2772 912 
Q 2981 1044 2981 1288 
Q 2981 1506 2839 1625 
Q 2697 1744 2272 1838 
L 1806 1941 
Q 1106 2091 782 2419 
Q 459 2747 459 3303 
Q 459 4000 909 4375 
Q 1359 4750 2203 4750 
Q 2588 4750 2994 4692 
Q 3400 4634 3834 4519 
z
" transform="scale(0.015625)"/>
      <path id="DejaVuSans-Bold-74" d="M 1759 4494 
L 1759 3500 
L 2913 3500 
L 2913 2700 
L 1759 2700 
L 1759 1216 
Q 1759 972 1856 886 
Q 1953 800 2241 800 
L 2816 800 
L 2816 0 
L 1856 0 
Q 1194 0 917 276 
Q 641 553 641 1216 
L 641 2700 
L 84 2700 
L 84 3500 
L 641 3500 
L 641 4494 
L 1759 4494 
z
" transform="scale(0.015625)"/>
      <path id="DejaVuSans-Bold-61" d="M 2106 1575 
Q 1756 1575 1579 1456 
Q 1403 1338 1403 1106 
Q 1403 894 1545 773 
Q 1688 653 1941 653 
Q 2256 653 2472 879 
Q 2688 1106 2688 1447 
L 2688 1575 
L 2106 1575 
z
M 3816 1997 
L 3816 0 
L 2688 0 
L 2688 519 
Q 2463 200 2181 54 
Q 1900 -91 1497 -91 
Q 953 -91 614 226 
Q 275 544 275 1050 
Q 275 1666 698 1953 
Q 1122 2241 2028 2241 
L 2688 2241 
L 2688 2328 
Q 2688 2594 2478 2717 
Q 2269 2841 1825 2841 
Q 1466 2841 1156 2769 
Q 847 2697 581 2553 
L 581 3406 
Q 941 3494 1303 3539 
Q 1666 3584 2028 3584 
Q 2975 3584 3395 3211 
Q 3816 2838 3816 1997 
z
" transform="scale(0.015625)"/>
      <path id="DejaVuSans-Bold-65" d="M 4031 1759 
L 4031 1441 
L 1416 1441 
Q 1456 1047 1700 850 
Q 1944 653 2381 653 
Q 2734 653 3104 758 
Q 3475 863 3866 1075 
L 3866 213 
Q 3469 63 3072 -14 
Q 2675 -91 2278 -91 
Q 1328 -91 801 392 
Q 275 875 275 1747 
Q 275 2603 792 3093 
Q 1309 3584 2216 3584 
Q 3041 3584 3536 3087 
Q 4031 2591 4031 1759 
z
M 2881 2131 
Q 2881 2450 2695 2645 
Q 2509 2841 2209 2841 
Q 1884 2841 1681 2658 
Q 1478 2475 1428 2131 
L 2881 2131 
z
" transform="scale(0.015625)"/>
      <path id="DejaVuSans-Bold-70" d="M 1656 506 
L 1656 -1331 
L 538 -1331 
L 538 3500 
L 1656 3500 
L 1656 2988 
Q 1888 3294 2169 3439 
Q 2450 3584 2816 3584 
Q 3463 3584 3878 3070 
Q 4294 2556 4294 1747 
Q 4294 938 3878 423 
Q 3463 -91 2816 -91 
Q 2450 -91 2169 54 
Q 1888 200 1656 506 
z
M 2400 2772 
Q 2041 2772 1848 2508 
Q 1656 2244 1656 1747 
Q 1656 1250 1848 986 
Q 2041 722 2400 722 
Q 2759 722 2948 984 
Q 3138 1247 3138 1747 
Q 3138 2247 2948 2509 
Q 2759 2772 2400 2772 
z
" transform="scale(0.015625)"/>
      <path id="DejaVuSans-Bold-6f" d="M 2203 2784 
Q 1831 2784 1636 2517 
Q 1441 2250 1441 1747 
Q 1441 1244 1636 976 
Q 1831 709 2203 709 
Q 2569 709 2762 976 
Q 2956 1244 2956 1747 
Q 2956 2250 2762 2517 
Q 2569 2784 2203 2784 
z
M 2203 3584 
Q 3106 3584 3614 3096 
Q 4122 2609 4122 1747 
Q 4122 884 3614 396 
Q 3106 -91 2203 -91 
Q 1297 -91 786 396 
Q 275 884 275 1747 
Q 275 2609 786 3096 
Q 1297 3584 2203 3584 
z
" transform="scale(0.015625)"/>
      <path id="DejaVuSans-Bold-6c" d="M 538 4863 
L 1656 4863 
L 1656 0 
L 538 0 
L 538 4863 
z
" transform="scale(0.015625)"/>
      <path id="DejaVuSans-Bold-76" d="M 97 3500 
L 1216 3500 
L 2088 1081 
L 2956 3500 
L 4078 3500 
L 2700 0 
L 1472 0 
L 97 3500 
z
" transform="scale(0.015625)"/>
      <path id="DejaVuSans-Bold-73" d="M 3272 3391 
L 3272 2541 
Q 2913 2691 2578 2766 
Q 2244 2841 1947 2841 
Q 1628 2841 1473 2761 
Q 1319 2681 1319 2516 
Q 1319 2381 1436 2309 
Q 1553 2238 1856 2203 
L 2053 2175 
Q 2913 2066 3209 1816 
Q 3506 1566 3506 1031 
Q 3506 472 3093 190 
Q 2681 -91 1863 -91 
Q 1516 -91 1145 -36 
Q 775 19 384 128 
L 384 978 
Q 719 816 1070 734 
Q 1422 653 1784 653 
Q 2113 653 2278 743 
Q 2444 834 2444 1013 
Q 2444 1163 2330 1236 
Q 2216 1309 1875 1350 
L 1678 1375 
Q 931 1469 631 1722 
Q 331 1975 331 2491 
Q 331 3047 712 3315 
Q 1094 3584 1881 3584 
Q 2191 3584 2531 3537 
Q 2872 3491 3272 3391 
z
" transform="scale(0.015625)"/>
      <path id="DejaVuSans-Bold-68" d="M 4056 2131 
L 4056 0 
L 2931 0 
L 2931 347 
L 2931 1625 
Q 2931 2084 2911 2256 
Q 2891 2428 2841 2509 
Q 2775 2619 2662 2680 
Q 2550 2741 2406 2741 
Q 2056 2741 1856 2470 
Q 1656 2200 1656 1722 
L 1656 0 
L 538 0 
L 538 4863 
L 1656 4863 
L 1656 2988 
Q 1909 3294 2193 3439 
Q 2478 3584 2822 3584 
Q 3428 3584 3742 3212 
Q 4056 2841 4056 2131 
z
" transform="scale(0.015625)"/>
      <path id="DejaVuSans-Bold-72" d="M 3138 2547 
Q 2991 2616 2845 2648 
Q 2700 2681 2553 2681 
Q 2122 2681 1889 2404 
Q 1656 2128 1656 1613 
L 1656 0 
L 538 0 
L 538 3500 
L 1656 3500 
L 1656 2925 
Q 1872 3269 2151 3426 
Q 2431 3584 2822 3584 
Q 2878 3584 2943 3579 
Q 3009 3575 3134 3559 
L 3138 2547 
z
" transform="scale(0.015625)"/>
      <path id="DejaVuSans-Bold-2d" d="M 347 2297 
L 2309 2297 
L 2309 1388 
L 347 1388 
L 347 2297 
z
" transform="scale(0.015625)"/>
      <path id="DejaVuSans-Bold-6d" d="M 3781 2919 
Q 3994 3244 4286 3414 
Q 4578 3584 4928 3584 
Q 5531 3584 5847 3212 
Q 6163 2841 6163 2131 
L 6163 0 
L 5038 0 
L 5038 1825 
Q 5041 1866 5042 1909 
Q 5044 1953 5044 2034 
Q 5044 2406 4934 2573 
Q 4825 2741 4581 2741 
Q 4263 2741 4089 2478 
Q 3916 2216 3909 1719 
L 3909 0 
L 2784 0 
L 2784 1825 
Q 2784 2406 2684 2573 
Q 2584 2741 2328 2741 
Q 2006 2741 1831 2477 
Q 1656 2213 1656 1722 
L 1656 0 
L 531 0 
L 531 3500 
L 1656 3500 
L 1656 2988 
Q 1863 3284 2130 3434 
Q 2397 3584 2719 3584 
Q 3081 3584 3359 3409 
Q 3638 3234 3781 2919 
z
" transform="scale(0.015625)"/>
      <path id="DejaVuSans-Bold-6e" d="M 4056 2131 
L 4056 0 
L 2931 0 
L 2931 347 
L 2931 1631 
Q 2931 2084 2911 2256 
Q 2891 2428 2841 2509 
Q 2775 2619 2662 2680 
Q 2550 2741 2406 2741 
Q 2056 2741 1856 2470 
Q 1656 2200 1656 1722 
L 1656 0 
L 538 0 
L 538 3500 
L 1656 3500 
L 1656 2988 
Q 1909 3294 2193 3439 
Q 2478 3584 2822 3584 
Q 3428 3584 3742 3212 
Q 4056 2841 4056 2131 
z
" transform="scale(0.015625)"/>
      <path id="DejaVuSans-Bold-69" d="M 538 3500 
L 1656 3500 
L 1656 0 
L 538 0 
L 538 3500 
z
M 538 4863 
L 1656 4863 
L 1656 3950 
L 538 3950 
L 538 4863 
z
" transform="scale(0.015625)"/>
     </defs>
     <use xlink:href="#DejaVuSans-Bold-46"/>
     <use xlink:href="#DejaVuSans-Bold-32" x="68.310547"/>
     <use xlink:href="#DejaVuSans-Bold-2e" x="137.890625"/>
     <use xlink:href="#DejaVuSans-Bold-20" x="175.878906"/>
     <use xlink:href="#DejaVuSans-Bold-53" x="210.693359"/>
     <use xlink:href="#DejaVuSans-Bold-74" x="282.714844"/>
     <use xlink:href="#DejaVuSans-Bold-61" x="330.517578"/>
     <use xlink:href="#DejaVuSans-Bold-74" x="397.998047"/>
     <use xlink:href="#DejaVuSans-Bold-65" x="445.800781"/>
     <use xlink:href="#DejaVuSans-Bold-20" x="513.623047"/>
     <use xlink:href="#DejaVuSans-Bold-70" x="548.4375"/>
     <use xlink:href="#DejaVuSans-Bold-6f" x="620.019531"/>
     <use xlink:href="#DejaVuSans-Bold-6f" x="688.720703"/>
     <use xlink:href="#DejaVuSans-Bold-6c" x="757.421875"/>
     <use xlink:href="#DejaVuSans-Bold-20" x="791.699219"/>
     <use xlink:href="#DejaVuSans-Bold-76" x="826.513672"/>
     <use xlink:href="#DejaVuSans-Bold-73" x="891.699219"/>
     <use xlink:href="#DejaVuSans-Bold-20" x="951.220703"/>
     <use xlink:href="#DejaVuSans-Bold-73" x="986.035156"/>
     <use xlink:href="#DejaVuSans-Bold-68" x="1045.556641"/>
     <use xlink:href="#DejaVuSans-Bold-6f" x="1116.748047"/>
     <use xlink:href="#DejaVuSans-Bold-72" x="1185.449219"/>
     <use xlink:href="#DejaVuSans-Bold-74" x="1234.765625"/>
     <use xlink:href="#DejaVuSans-Bold-2d" x="1282.568359"/>
     <use xlink:href="#DejaVuSans-Bold-74" x="1324.072266"/>
     <use xlink:href="#DejaVuSans-Bold-65" x="1371.875"/>
     <use xlink:href="#DejaVuSans-Bold-72" x="1439.697266"/>
     <use xlink:href="#DejaVuSans-Bold-6d" x="1489.013672"/>
     <use xlink:href="#DejaVuSans-Bold-20" x="1593.212891"/>
     <use xlink:href="#DejaVuSans-Bold-6e" x="1628.027344"/>
     <use xlink:href="#DejaVuSans-Bold-61" x="1699.21875"/>
     <use xlink:href="#DejaVuSans-Bold-72" x="1766.699219"/>
     <use xlink:href="#DejaVuSans-Bold-72" x="1816.015625"/>
     <use xlink:href="#DejaVuSans-Bold-61" x="1865.332031"/>
     <use xlink:href="#DejaVuSans-Bold-74" x="1932.8125"/>
     <use xlink:href="#DejaVuSans-Bold-69" x="1980.615234"/>
     <use xlink:href="#DejaVuSans-Bold-76" x="2014.892578"/>
     <use xlink:href="#DejaVuSans-Bold-65" x="2080.078125"/>
     <use xlink:href="#DejaVuSans-Bold-20" x="2147.900391"/>
     <use xlink:href="#DejaVuSans-Bold-73" x="2182.714844"/>
     <use xlink:href="#DejaVuSans-Bold-6c" x="2242.236328"/>
     <use xlink:href="#DejaVuSans-Bold-6f" x="2276.513672"/>
     <use xlink:href="#DejaVuSans-Bold-74" x="2345.214844"/>
    </g>
   </g>
   <g id="text_2">
    <!-- State pool -->
    <g style="fill: #1a202c" transform="translate(124.020375 109.493406) scale(0.09 -0.09)">
     <defs>
      <path id="DejaVuSans-53" d="M 3425 4513 
L 3425 3897 
Q 3066 4069 2747 4153 
Q 2428 4238 2131 4238 
Q 1616 4238 1336 4038 
Q 1056 3838 1056 3469 
Q 1056 3159 1242 3001 
Q 1428 2844 1947 2747 
L 2328 2669 
Q 3034 2534 3370 2195 
Q 3706 1856 3706 1288 
Q 3706 609 3251 259 
Q 2797 -91 1919 -91 
Q 1588 -91 1214 -16 
Q 841 59 441 206 
L 441 856 
Q 825 641 1194 531 
Q 1563 422 1919 422 
Q 2459 422 2753 634 
Q 3047 847 3047 1241 
Q 3047 1584 2836 1778 
Q 2625 1972 2144 2069 
L 1759 2144 
Q 1053 2284 737 2584 
Q 422 2884 422 3419 
Q 422 4038 858 4394 
Q 1294 4750 2059 4750 
Q 2388 4750 2728 4690 
Q 3069 4631 3425 4513 
z
" transform="scale(0.015625)"/>
      <path id="DejaVuSans-74" d="M 1172 4494 
L 1172 3500 
L 2356 3500 
L 2356 3053 
L 1172 3053 
L 1172 1153 
Q 1172 725 1289 603 
Q 1406 481 1766 481 
L 2356 481 
L 2356 0 
L 1766 0 
Q 1100 0 847 248 
Q 594 497 594 1153 
L 594 3053 
L 172 3053 
L 172 3500 
L 594 3500 
L 594 4494 
L 1172 4494 
z
" transform="scale(0.015625)"/>
      <path id="DejaVuSans-61" d="M 2194 1759 
Q 1497 1759 1228 1600 
Q 959 1441 959 1056 
Q 959 750 1161 570 
Q 1363 391 1709 391 
Q 2188 391 2477 730 
Q 2766 1069 2766 1631 
L 2766 1759 
L 2194 1759 
z
M 3341 1997 
L 3341 0 
L 2766 0 
L 2766 531 
Q 2569 213 2275 61 
Q 1981 -91 1556 -91 
Q 1019 -91 701 211 
Q 384 513 384 1019 
Q 384 1609 779 1909 
Q 1175 2209 1959 2209 
L 2766 2209 
L 2766 2266 
Q 2766 2663 2505 2880 
Q 2244 3097 1772 3097 
Q 1472 3097 1187 3025 
Q 903 2953 641 2809 
L 641 3341 
Q 956 3463 1253 3523 
Q 1550 3584 1831 3584 
Q 2591 3584 2966 3190 
Q 3341 2797 3341 1997 
z
" transform="scale(0.015625)"/>
      <path id="DejaVuSans-65" d="M 3597 1894 
L 3597 1613 
L 953 1613 
Q 991 1019 1311 708 
Q 1631 397 2203 397 
Q 2534 397 2845 478 
Q 3156 559 3463 722 
L 3463 178 
Q 3153 47 2828 -22 
Q 2503 -91 2169 -91 
Q 1331 -91 842 396 
Q 353 884 353 1716 
Q 353 2575 817 3079 
Q 1281 3584 2069 3584 
Q 2775 3584 3186 3129 
Q 3597 2675 3597 1894 
z
M 3022 2063 
Q 3016 2534 2758 2815 
Q 2500 3097 2075 3097 
Q 1594 3097 1305 2825 
Q 1016 2553 972 2059 
L 3022 2063 
z
" transform="scale(0.015625)"/>
      <path id="DejaVuSans-20" transform="scale(0.015625)"/>
      <path id="DejaVuSans-70" d="M 1159 525 
L 1159 -1331 
L 581 -1331 
L 581 3500 
L 1159 3500 
L 1159 2969 
Q 1341 3281 1617 3432 
Q 1894 3584 2278 3584 
Q 2916 3584 3314 3078 
Q 3713 2572 3713 1747 
Q 3713 922 3314 415 
Q 2916 -91 2278 -91 
Q 1894 -91 1617 61 
Q 1341 213 1159 525 
z
M 3116 1747 
Q 3116 2381 2855 2742 
Q 2594 3103 2138 3103 
Q 1681 3103 1420 2742 
Q 1159 2381 1159 1747 
Q 1159 1113 1420 752 
Q 1681 391 2138 391 
Q 2594 391 2855 752 
Q 3116 1113 3116 1747 
z
" transform="scale(0.015625)"/>
      <path id="DejaVuSans-6f" d="M 1959 3097 
Q 1497 3097 1228 2736 
Q 959 2375 959 1747 
Q 959 1119 1226 758 
Q 1494 397 1959 397 
Q 2419 397 2687 759 
Q 2956 1122 2956 1747 
Q 2956 2369 2687 2733 
Q 2419 3097 1959 3097 
z
M 1959 3584 
Q 2709 3584 3137 3096 
Q 3566 2609 3566 1747 
Q 3566 888 3137 398 
Q 2709 -91 1959 -91 
Q 1206 -91 779 398 
Q 353 888 353 1747 
Q 353 2609 779 3096 
Q 1206 3584 1959 3584 
z
" transform="scale(0.015625)"/>
      <path id="DejaVuSans-6c" d="M 603 4863 
L 1178 4863 
L 1178 0 
L 603 0 
L 603 4863 
z
" transform="scale(0.015625)"/>
     </defs>
     <use xlink:href="#DejaVuSans-53"/>
     <use xlink:href="#DejaVuSans-74" x="63.476562"/>
     <use xlink:href="#DejaVuSans-61" x="102.685547"/>
     <use xlink:href="#DejaVuSans-74" x="163.964844"/>
     <use xlink:href="#DejaVuSans-65" x="203.173828"/>
     <use xlink:href="#DejaVuSans-20" x="264.697266"/>
     <use xlink:href="#DejaVuSans-70" x="296.484375"/>
     <use xlink:href="#DejaVuSans-6f" x="359.960938"/>
     <use xlink:href="#DejaVuSans-6f" x="421.142578"/>
     <use xlink:href="#DejaVuSans-6c" x="482.324219"/>
    </g>
    <!-- unordered bounded -->
    <g style="fill: #1a202c" transform="translate(102.520922 119.571437) scale(0.09 -0.09)">
     <defs>
      <path id="DejaVuSans-75" d="M 544 1381 
L 544 3500 
L 1119 3500 
L 1119 1403 
Q 1119 906 1312 657 
Q 1506 409 1894 409 
Q 2359 409 2629 706 
Q 2900 1003 2900 1516 
L 2900 3500 
L 3475 3500 
L 3475 0 
L 2900 0 
L 2900 538 
Q 2691 219 2414 64 
Q 2138 -91 1772 -91 
Q 1169 -91 856 284 
Q 544 659 544 1381 
z
M 1991 3584 
L 1991 3584 
z
" transform="scale(0.015625)"/>
      <path id="DejaVuSans-6e" d="M 3513 2113 
L 3513 0 
L 2938 0 
L 2938 2094 
Q 2938 2591 2744 2837 
Q 2550 3084 2163 3084 
Q 1697 3084 1428 2787 
Q 1159 2491 1159 1978 
L 1159 0 
L 581 0 
L 581 3500 
L 1159 3500 
L 1159 2956 
Q 1366 3272 1645 3428 
Q 1925 3584 2291 3584 
Q 2894 3584 3203 3211 
Q 3513 2838 3513 2113 
z
" transform="scale(0.015625)"/>
      <path id="DejaVuSans-72" d="M 2631 2963 
Q 2534 3019 2420 3045 
Q 2306 3072 2169 3072 
Q 1681 3072 1420 2755 
Q 1159 2438 1159 1844 
L 1159 0 
L 581 0 
L 581 3500 
L 1159 3500 
L 1159 2956 
Q 1341 3275 1631 3429 
Q 1922 3584 2338 3584 
Q 2397 3584 2469 3576 
Q 2541 3569 2628 3553 
L 2631 2963 
z
" transform="scale(0.015625)"/>
      <path id="DejaVuSans-64" d="M 2906 2969 
L 2906 4863 
L 3481 4863 
L 3481 0 
L 2906 0 
L 2906 525 
Q 2725 213 2448 61 
Q 2172 -91 1784 -91 
Q 1150 -91 751 415 
Q 353 922 353 1747 
Q 353 2572 751 3078 
Q 1150 3584 1784 3584 
Q 2172 3584 2448 3432 
Q 2725 3281 2906 2969 
z
M 947 1747 
Q 947 1113 1208 752 
Q 1469 391 1925 391 
Q 2381 391 2643 752 
Q 2906 1113 2906 1747 
Q 2906 2381 2643 2742 
Q 2381 3103 1925 3103 
Q 1469 3103 1208 2742 
Q 947 2381 947 1747 
z
" transform="scale(0.015625)"/>
      <path id="DejaVuSans-62" d="M 3116 1747 
Q 3116 2381 2855 2742 
Q 2594 3103 2138 3103 
Q 1681 3103 1420 2742 
Q 1159 2381 1159 1747 
Q 1159 1113 1420 752 
Q 1681 391 2138 391 
Q 2594 391 2855 752 
Q 3116 1113 3116 1747 
z
M 1159 2969 
Q 1341 3281 1617 3432 
Q 1894 3584 2278 3584 
Q 2916 3584 3314 3078 
Q 3713 2572 3713 1747 
Q 3713 922 3314 415 
Q 2916 -91 2278 -91 
Q 1894 -91 1617 61 
Q 1341 213 1159 525 
L 1159 0 
L 581 0 
L 581 4863 
L 1159 4863 
L 1159 2969 
z
" transform="scale(0.015625)"/>
     </defs>
     <use xlink:href="#DejaVuSans-75"/>
     <use xlink:href="#DejaVuSans-6e" x="63.378906"/>
     <use xlink:href="#DejaVuSans-6f" x="126.757812"/>
     <use xlink:href="#DejaVuSans-72" x="187.939453"/>
     <use xlink:href="#DejaVuSans-64" x="227.302734"/>
     <use xlink:href="#DejaVuSans-65" x="290.779297"/>
     <use xlink:href="#DejaVuSans-72" x="352.302734"/>
     <use xlink:href="#DejaVuSans-65" x="391.166016"/>
     <use xlink:href="#DejaVuSans-64" x="452.689453"/>
     <use xlink:href="#DejaVuSans-20" x="516.166016"/>
     <use xlink:href="#DejaVuSans-62" x="547.953125"/>
     <use xlink:href="#DejaVuSans-6f" x="611.429688"/>
     <use xlink:href="#DejaVuSans-75" x="672.611328"/>
     <use xlink:href="#DejaVuSans-6e" x="735.990234"/>
     <use xlink:href="#DejaVuSans-64" x="799.369141"/>
     <use xlink:href="#DejaVuSans-65" x="862.845703"/>
     <use xlink:href="#DejaVuSans-64" x="924.369141"/>
    </g>
    <!-- energy field -->
    <g style="fill: #1a202c" transform="translate(120.154594 129.649469) scale(0.09 -0.09)">
     <defs>
      <path id="DejaVuSans-67" d="M 2906 1791 
Q 2906 2416 2648 2759 
Q 2391 3103 1925 3103 
Q 1463 3103 1205 2759 
Q 947 2416 947 1791 
Q 947 1169 1205 825 
Q 1463 481 1925 481 
Q 2391 481 2648 825 
Q 2906 1169 2906 1791 
z
M 3481 434 
Q 3481 -459 3084 -895 
Q 2688 -1331 1869 -1331 
Q 1566 -1331 1297 -1286 
Q 1028 -1241 775 -1147 
L 775 -588 
Q 1028 -725 1275 -790 
Q 1522 -856 1778 -856 
Q 2344 -856 2625 -561 
Q 2906 -266 2906 331 
L 2906 616 
Q 2728 306 2450 153 
Q 2172 0 1784 0 
Q 1141 0 747 490 
Q 353 981 353 1791 
Q 353 2603 747 3093 
Q 1141 3584 1784 3584 
Q 2172 3584 2450 3431 
Q 2728 3278 2906 2969 
L 2906 3500 
L 3481 3500 
L 3481 434 
z
" transform="scale(0.015625)"/>
      <path id="DejaVuSans-79" d="M 2059 -325 
Q 1816 -950 1584 -1140 
Q 1353 -1331 966 -1331 
L 506 -1331 
L 506 -850 
L 844 -850 
Q 1081 -850 1212 -737 
Q 1344 -625 1503 -206 
L 1606 56 
L 191 3500 
L 800 3500 
L 1894 763 
L 2988 3500 
L 3597 3500 
L 2059 -325 
z
" transform="scale(0.015625)"/>
      <path id="DejaVuSans-66" d="M 2375 4863 
L 2375 4384 
L 1825 4384 
Q 1516 4384 1395 4259 
Q 1275 4134 1275 3809 
L 1275 3500 
L 2222 3500 
L 2222 3053 
L 1275 3053 
L 1275 0 
L 697 0 
L 697 3053 
L 147 3053 
L 147 3500 
L 697 3500 
L 697 3744 
Q 697 4328 969 4595 
Q 1241 4863 1831 4863 
L 2375 4863 
z
" transform="scale(0.015625)"/>
      <path id="DejaVuSans-69" d="M 603 3500 
L 1178 3500 
L 1178 0 
L 603 0 
L 603 3500 
z
M 603 4863 
L 1178 4863 
L 1178 4134 
L 603 4134 
L 603 4863 
z
" transform="scale(0.015625)"/>
     </defs>
     <use xlink:href="#DejaVuSans-65"/>
     <use xlink:href="#DejaVuSans-6e" x="61.523438"/>
     <use xlink:href="#DejaVuSans-65" x="124.902344"/>
     <use xlink:href="#DejaVuSans-72" x="186.425781"/>
     <use xlink:href="#DejaVuSans-67" x="225.789062"/>
     <use xlink:href="#DejaVuSans-79" x="289.265625"/>
     <use xlink:href="#DejaVuSans-20" x="348.445312"/>
     <use xlink:href="#DejaVuSans-66" x="380.232422"/>
     <use xlink:href="#DejaVuSans-69" x="415.4375"/>
     <use xlink:href="#DejaVuSans-65" x="443.220703"/>
     <use xlink:href="#DejaVuSans-6c" x="504.744141"/>
     <use xlink:href="#DejaVuSans-64" x="532.527344"/>
    </g>
   </g>
   <g id="text_3">
    <!-- Fast system -->
    <g style="fill: #1a202c" transform="translate(120.234047 203.221406) scale(0.09 -0.09)">
     <defs>
      <path id="DejaVuSans-46" d="M 628 4666 
L 3309 4666 
L 3309 4134 
L 1259 4134 
L 1259 2759 
L 3109 2759 
L 3109 2228 
L 1259 2228 
L 1259 0 
L 628 0 
L 628 4666 
z
" transform="scale(0.015625)"/>
      <path id="DejaVuSans-73" d="M 2834 3397 
L 2834 2853 
Q 2591 2978 2328 3040 
Q 2066 3103 1784 3103 
Q 1356 3103 1142 2972 
Q 928 2841 928 2578 
Q 928 2378 1081 2264 
Q 1234 2150 1697 2047 
L 1894 2003 
Q 2506 1872 2764 1633 
Q 3022 1394 3022 966 
Q 3022 478 2636 193 
Q 2250 -91 1575 -91 
Q 1294 -91 989 -36 
Q 684 19 347 128 
L 347 722 
Q 666 556 975 473 
Q 1284 391 1588 391 
Q 1994 391 2212 530 
Q 2431 669 2431 922 
Q 2431 1156 2273 1281 
Q 2116 1406 1581 1522 
L 1381 1569 
Q 847 1681 609 1914 
Q 372 2147 372 2553 
Q 372 3047 722 3315 
Q 1072 3584 1716 3584 
Q 2034 3584 2315 3537 
Q 2597 3491 2834 3397 
z
" transform="scale(0.015625)"/>
      <path id="DejaVuSans-6d" d="M 3328 2828 
Q 3544 3216 3844 3400 
Q 4144 3584 4550 3584 
Q 5097 3584 5394 3201 
Q 5691 2819 5691 2113 
L 5691 0 
L 5113 0 
L 5113 2094 
Q 5113 2597 4934 2840 
Q 4756 3084 4391 3084 
Q 3944 3084 3684 2787 
Q 3425 2491 3425 1978 
L 3425 0 
L 2847 0 
L 2847 2094 
Q 2847 2600 2669 2842 
Q 2491 3084 2119 3084 
Q 1678 3084 1418 2786 
Q 1159 2488 1159 1978 
L 1159 0 
L 581 0 
L 581 3500 
L 1159 3500 
L 1159 2956 
Q 1356 3278 1631 3431 
Q 1906 3584 2284 3584 
Q 2666 3584 2933 3390 
Q 3200 3197 3328 2828 
z
" transform="scale(0.015625)"/>
     </defs>
     <use xlink:href="#DejaVuSans-46"/>
     <use xlink:href="#DejaVuSans-61" x="48.394531"/>
     <use xlink:href="#DejaVuSans-73" x="109.673828"/>
     <use xlink:href="#DejaVuSans-74" x="161.773438"/>
     <use xlink:href="#DejaVuSans-20" x="200.982422"/>
     <use xlink:href="#DejaVuSans-73" x="232.769531"/>
     <use xlink:href="#DejaVuSans-79" x="284.869141"/>
     <use xlink:href="#DejaVuSans-73" x="344.048828"/>
     <use xlink:href="#DejaVuSans-74" x="396.148438"/>
     <use xlink:href="#DejaVuSans-65" x="435.357422"/>
     <use xlink:href="#DejaVuSans-6d" x="496.880859"/>
    </g>
    <!-- SA energy matching -->
    <g style="fill: #1a202c" transform="translate(101.225062 213.299437) scale(0.09 -0.09)">
     <defs>
      <path id="DejaVuSans-41" d="M 2188 4044 
L 1331 1722 
L 3047 1722 
L 2188 4044 
z
M 1831 4666 
L 2547 4666 
L 4325 0 
L 3669 0 
L 3244 1197 
L 1141 1197 
L 716 0 
L 50 0 
L 1831 4666 
z
" transform="scale(0.015625)"/>
      <path id="DejaVuSans-63" d="M 3122 3366 
L 3122 2828 
Q 2878 2963 2633 3030 
Q 2388 3097 2138 3097 
Q 1578 3097 1268 2742 
Q 959 2388 959 1747 
Q 959 1106 1268 751 
Q 1578 397 2138 397 
Q 2388 397 2633 464 
Q 2878 531 3122 666 
L 3122 134 
Q 2881 22 2623 -34 
Q 2366 -91 2075 -91 
Q 1284 -91 818 406 
Q 353 903 353 1747 
Q 353 2603 823 3093 
Q 1294 3584 2113 3584 
Q 2378 3584 2631 3529 
Q 2884 3475 3122 3366 
z
" transform="scale(0.015625)"/>
      <path id="DejaVuSans-68" d="M 3513 2113 
L 3513 0 
L 2938 0 
L 2938 2094 
Q 2938 2591 2744 2837 
Q 2550 3084 2163 3084 
Q 1697 3084 1428 2787 
Q 1159 2491 1159 1978 
L 1159 0 
L 581 0 
L 581 4863 
L 1159 4863 
L 1159 2956 
Q 1366 3272 1645 3428 
Q 1925 3584 2291 3584 
Q 2894 3584 3203 3211 
Q 3513 2838 3513 2113 
z
" transform="scale(0.015625)"/>
     </defs>
     <use xlink:href="#DejaVuSans-53"/>
     <use xlink:href="#DejaVuSans-41" x="65.351562"/>
     <use xlink:href="#DejaVuSans-20" x="133.759766"/>
     <use xlink:href="#DejaVuSans-65" x="165.546875"/>
     <use xlink:href="#DejaVuSans-6e" x="227.070312"/>
     <use xlink:href="#DejaVuSans-65" x="290.449219"/>
     <use xlink:href="#DejaVuSans-72" x="351.972656"/>
     <use xlink:href="#DejaVuSans-67" x="391.335938"/>
     <use xlink:href="#DejaVuSans-79" x="454.8125"/>
     <use xlink:href="#DejaVuSans-20" x="513.992188"/>
     <use xlink:href="#DejaVuSans-6d" x="545.779297"/>
     <use xlink:href="#DejaVuSans-61" x="643.191406"/>
     <use xlink:href="#DejaVuSans-74" x="704.470703"/>
     <use xlink:href="#DejaVuSans-63" x="743.679688"/>
     <use xlink:href="#DejaVuSans-68" x="798.660156"/>
     <use xlink:href="#DejaVuSans-69" x="862.039062"/>
     <use xlink:href="#DejaVuSans-6e" x="889.822266"/>
     <use xlink:href="#DejaVuSans-67" x="953.201172"/>
    </g>
    <!-- B/C recall -->
    <g style="fill: #1a202c" transform="translate(125.550375 223.377469) scale(0.09 -0.09)">
     <defs>
      <path id="DejaVuSans-42" d="M 1259 2228 
L 1259 519 
L 2272 519 
Q 2781 519 3026 730 
Q 3272 941 3272 1375 
Q 3272 1813 3026 2020 
Q 2781 2228 2272 2228 
L 1259 2228 
z
M 1259 4147 
L 1259 2741 
L 2194 2741 
Q 2656 2741 2882 2914 
Q 3109 3088 3109 3444 
Q 3109 3797 2882 3972 
Q 2656 4147 2194 4147 
L 1259 4147 
z
M 628 4666 
L 2241 4666 
Q 2963 4666 3353 4366 
Q 3744 4066 3744 3513 
Q 3744 3084 3544 2831 
Q 3344 2578 2956 2516 
Q 3422 2416 3680 2098 
Q 3938 1781 3938 1306 
Q 3938 681 3513 340 
Q 3088 0 2303 0 
L 628 0 
L 628 4666 
z
" transform="scale(0.015625)"/>
      <path id="DejaVuSans-2f" d="M 1625 4666 
L 2156 4666 
L 531 -594 
L 0 -594 
L 1625 4666 
z
" transform="scale(0.015625)"/>
      <path id="DejaVuSans-43" d="M 4122 4306 
L 4122 3641 
Q 3803 3938 3442 4084 
Q 3081 4231 2675 4231 
Q 1875 4231 1450 3742 
Q 1025 3253 1025 2328 
Q 1025 1406 1450 917 
Q 1875 428 2675 428 
Q 3081 428 3442 575 
Q 3803 722 4122 1019 
L 4122 359 
Q 3791 134 3420 21 
Q 3050 -91 2638 -91 
Q 1578 -91 968 557 
Q 359 1206 359 2328 
Q 359 3453 968 4101 
Q 1578 4750 2638 4750 
Q 3056 4750 3426 4639 
Q 3797 4528 4122 4306 
z
" transform="scale(0.015625)"/>
     </defs>
     <use xlink:href="#DejaVuSans-42"/>
     <use xlink:href="#DejaVuSans-2f" x="68.603516"/>
     <use xlink:href="#DejaVuSans-43" x="102.294922"/>
     <use xlink:href="#DejaVuSans-20" x="172.119141"/>
     <use xlink:href="#DejaVuSans-72" x="203.90625"/>
     <use xlink:href="#DejaVuSans-65" x="242.769531"/>
     <use xlink:href="#DejaVuSans-63" x="304.292969"/>
     <use xlink:href="#DejaVuSans-61" x="359.273438"/>
     <use xlink:href="#DejaVuSans-6c" x="420.552734"/>
     <use xlink:href="#DejaVuSans-6c" x="448.335938"/>
    </g>
   </g>
   <g id="text_4">
    <!-- Tick attention -->
    <g style="fill: #1a202c" transform="translate(395.633391 95.140422) scale(0.09 -0.09)">
     <defs>
      <path id="DejaVuSans-54" d="M -19 4666 
L 3928 4666 
L 3928 4134 
L 2272 4134 
L 2272 0 
L 1638 0 
L 1638 4134 
L -19 4134 
L -19 4666 
z
" transform="scale(0.015625)"/>
      <path id="DejaVuSans-6b" d="M 581 4863 
L 1159 4863 
L 1159 1991 
L 2875 3500 
L 3609 3500 
L 1753 1863 
L 3688 0 
L 2938 0 
L 1159 1709 
L 1159 0 
L 581 0 
L 581 4863 
z
" transform="scale(0.015625)"/>
     </defs>
     <use xlink:href="#DejaVuSans-54"/>
     <use xlink:href="#DejaVuSans-69" x="57.958984"/>
     <use xlink:href="#DejaVuSans-63" x="85.742188"/>
     <use xlink:href="#DejaVuSans-6b" x="140.722656"/>
     <use xlink:href="#DejaVuSans-20" x="198.632812"/>
     <use xlink:href="#DejaVuSans-61" x="230.419922"/>
     <use xlink:href="#DejaVuSans-74" x="291.699219"/>
     <use xlink:href="#DejaVuSans-74" x="330.908203"/>
     <use xlink:href="#DejaVuSans-65" x="370.117188"/>
     <use xlink:href="#DejaVuSans-6e" x="431.640625"/>
     <use xlink:href="#DejaVuSans-74" x="495.019531"/>
     <use xlink:href="#DejaVuSans-69" x="534.228516"/>
     <use xlink:href="#DejaVuSans-6f" x="562.011719"/>
     <use xlink:href="#DejaVuSans-6e" x="623.193359"/>
    </g>
    <!-- packet -->
    <g style="fill: #1a202c" transform="translate(411.463547 105.218453) scale(0.09 -0.09)">
     <use xlink:href="#DejaVuSans-70"/>
     <use xlink:href="#DejaVuSans-61" x="63.476562"/>
     <use xlink:href="#DejaVuSans-63" x="124.755859"/>
     <use xlink:href="#DejaVuSans-6b" x="179.736328"/>
     <use xlink:href="#DejaVuSans-65" x="234.021484"/>
     <use xlink:href="#DejaVuSans-74" x="295.544922"/>
    </g>
   </g>
   <g id="text_5">
    <!-- Short-term slot -->
    <g style="fill: #1a202c" transform="translate(392.598703 154.741406) scale(0.09 -0.09)">
     <defs>
      <path id="DejaVuSans-2d" d="M 313 2009 
L 1997 2009 
L 1997 1497 
L 313 1497 
L 313 2009 
z
" transform="scale(0.015625)"/>
     </defs>
     <use xlink:href="#DejaVuSans-53"/>
     <use xlink:href="#DejaVuSans-68" x="63.476562"/>
     <use xlink:href="#DejaVuSans-6f" x="126.855469"/>
     <use xlink:href="#DejaVuSans-72" x="188.037109"/>
     <use xlink:href="#DejaVuSans-74" x="229.150391"/>
     <use xlink:href="#DejaVuSans-2d" x="268.359375"/>
     <use xlink:href="#DejaVuSans-74" x="304.443359"/>
     <use xlink:href="#DejaVuSans-65" x="343.652344"/>
     <use xlink:href="#DejaVuSans-72" x="405.175781"/>
     <use xlink:href="#DejaVuSans-6d" x="444.539062"/>
     <use xlink:href="#DejaVuSans-20" x="541.951172"/>
     <use xlink:href="#DejaVuSans-73" x="573.738281"/>
     <use xlink:href="#DejaVuSans-6c" x="625.837891"/>
     <use xlink:href="#DejaVuSans-6f" x="653.621094"/>
     <use xlink:href="#DejaVuSans-74" x="714.802734"/>
    </g>
    <!-- ordered narrative -->
    <g style="fill: #1a202c" transform="translate(387.138234 164.819437) scale(0.09 -0.09)">
     <defs>
      <path id="DejaVuSans-76" d="M 191 3500 
L 800 3500 
L 1894 563 
L 2988 3500 
L 3597 3500 
L 2284 0 
L 1503 0 
L 191 3500 
z
" transform="scale(0.015625)"/>
     </defs>
     <use xlink:href="#DejaVuSans-6f"/>
     <use xlink:href="#DejaVuSans-72" x="61.181641"/>
     <use xlink:href="#DejaVuSans-64" x="100.544922"/>
     <use xlink:href="#DejaVuSans-65" x="164.021484"/>
     <use xlink:href="#DejaVuSans-72" x="225.544922"/>
     <use xlink:href="#DejaVuSans-65" x="264.408203"/>
     <use xlink:href="#DejaVuSans-64" x="325.931641"/>
     <use xlink:href="#DejaVuSans-20" x="389.408203"/>
     <use xlink:href="#DejaVuSans-6e" x="421.195312"/>
     <use xlink:href="#DejaVuSans-61" x="484.574219"/>
     <use xlink:href="#DejaVuSans-72" x="545.853516"/>
     <use xlink:href="#DejaVuSans-72" x="585.216797"/>
     <use xlink:href="#DejaVuSans-61" x="626.330078"/>
     <use xlink:href="#DejaVuSans-74" x="687.609375"/>
     <use xlink:href="#DejaVuSans-69" x="726.818359"/>
     <use xlink:href="#DejaVuSans-76" x="754.601562"/>
     <use xlink:href="#DejaVuSans-65" x="813.78125"/>
    </g>
    <!-- packet -->
    <g style="fill: #1a202c" transform="translate(411.463547 174.897469) scale(0.09 -0.09)">
     <use xlink:href="#DejaVuSans-70"/>
     <use xlink:href="#DejaVuSans-61" x="63.476562"/>
     <use xlink:href="#DejaVuSans-63" x="124.755859"/>
     <use xlink:href="#DejaVuSans-6b" x="179.736328"/>
     <use xlink:href="#DejaVuSans-65" x="234.021484"/>
     <use xlink:href="#DejaVuSans-74" x="295.544922"/>
    </g>
   </g>
   <g id="text_6">
    <!-- Slow system -->
    <g style="fill: #1a202c" transform="translate(398.289094 225.845406) scale(0.09 -0.09)">
     <defs>
      <path id="DejaVuSans-77" d="M 269 3500 
L 844 3500 
L 1563 769 
L 2278 3500 
L 2956 3500 
L 3675 769 
L 4391 3500 
L 4966 3500 
L 4050 0 
L 3372 0 
L 2619 2869 
L 1863 0 
L 1184 0 
L 269 3500 
z
" transform="scale(0.015625)"/>
     </defs>
     <use xlink:href="#DejaVuSans-53"/>
     <use xlink:href="#DejaVuSans-6c" x="63.476562"/>
     <use xlink:href="#DejaVuSans-6f" x="91.259766"/>
     <use xlink:href="#DejaVuSans-77" x="152.441406"/>
     <use xlink:href="#DejaVuSans-20" x="234.228516"/>
     <use xlink:href="#DejaVuSans-73" x="266.015625"/>
     <use xlink:href="#DejaVuSans-79" x="318.115234"/>
     <use xlink:href="#DejaVuSans-73" x="377.294922"/>
     <use xlink:href="#DejaVuSans-74" x="429.394531"/>
     <use xlink:href="#DejaVuSans-65" x="468.603516"/>
     <use xlink:href="#DejaVuSans-6d" x="530.126953"/>
    </g>
    <!-- order + continuity -->
    <g style="fill: #1a202c" transform="translate(385.421203 235.923437) scale(0.09 -0.09)">
     <defs>
      <path id="DejaVuSans-2b" d="M 2944 4013 
L 2944 2272 
L 4684 2272 
L 4684 1741 
L 2944 1741 
L 2944 0 
L 2419 0 
L 2419 1741 
L 678 1741 
L 678 2272 
L 2419 2272 
L 2419 4013 
L 2944 4013 
z
" transform="scale(0.015625)"/>
     </defs>
     <use xlink:href="#DejaVuSans-6f"/>
     <use xlink:href="#DejaVuSans-72" x="61.181641"/>
     <use xlink:href="#DejaVuSans-64" x="100.544922"/>
     <use xlink:href="#DejaVuSans-65" x="164.021484"/>
     <use xlink:href="#DejaVuSans-72" x="225.544922"/>
     <use xlink:href="#DejaVuSans-20" x="266.658203"/>
     <use xlink:href="#DejaVuSans-2b" x="298.445312"/>
     <use xlink:href="#DejaVuSans-20" x="382.234375"/>
     <use xlink:href="#DejaVuSans-63" x="414.021484"/>
     <use xlink:href="#DejaVuSans-6f" x="469.001953"/>
     <use xlink:href="#DejaVuSans-6e" x="530.183594"/>
     <use xlink:href="#DejaVuSans-74" x="593.5625"/>
     <use xlink:href="#DejaVuSans-69" x="632.771484"/>
     <use xlink:href="#DejaVuSans-6e" x="660.554688"/>
     <use xlink:href="#DejaVuSans-75" x="723.933594"/>
     <use xlink:href="#DejaVuSans-69" x="787.3125"/>
     <use xlink:href="#DejaVuSans-74" x="815.095703"/>
     <use xlink:href="#DejaVuSans-79" x="854.304688"/>
    </g>
    <!-- readback -->
    <g style="fill: #1a202c" transform="translate(405.701437 246.001469) scale(0.09 -0.09)">
     <use xlink:href="#DejaVuSans-72"/>
     <use xlink:href="#DejaVuSans-65" x="38.863281"/>
     <use xlink:href="#DejaVuSans-61" x="100.386719"/>
     <use xlink:href="#DejaVuSans-64" x="161.666016"/>
     <use xlink:href="#DejaVuSans-62" x="225.142578"/>
     <use xlink:href="#DejaVuSans-61" x="288.619141"/>
     <use xlink:href="#DejaVuSans-63" x="349.898438"/>
     <use xlink:href="#DejaVuSans-6b" x="404.878906"/>
    </g>
   </g>
   <g id="text_7">
    <!-- The slot injects virtual-energy inner-sense SA each tick. -->
    <g style="fill: #374151" transform="translate(173.127734 278.688) scale(0.09 -0.09)">
     <defs>
      <path id="DejaVuSans-6a" d="M 603 3500 
L 1178 3500 
L 1178 -63 
Q 1178 -731 923 -1031 
Q 669 -1331 103 -1331 
L -116 -1331 
L -116 -844 
L 38 -844 
Q 366 -844 484 -692 
Q 603 -541 603 -63 
L 603 3500 
z
M 603 4863 
L 1178 4863 
L 1178 4134 
L 603 4134 
L 603 4863 
z
" transform="scale(0.015625)"/>
      <path id="DejaVuSans-2e" d="M 684 794 
L 1344 794 
L 1344 0 
L 684 0 
L 684 794 
z
" transform="scale(0.015625)"/>
     </defs>
     <use xlink:href="#DejaVuSans-54"/>
     <use xlink:href="#DejaVuSans-68" x="61.083984"/>
     <use xlink:href="#DejaVuSans-65" x="124.462891"/>
     <use xlink:href="#DejaVuSans-20" x="185.986328"/>
     <use xlink:href="#DejaVuSans-73" x="217.773438"/>
     <use xlink:href="#DejaVuSans-6c" x="269.873047"/>
     <use xlink:href="#DejaVuSans-6f" x="297.65625"/>
     <use xlink:href="#DejaVuSans-74" x="358.837891"/>
     <use xlink:href="#DejaVuSans-20" x="398.046875"/>
     <use xlink:href="#DejaVuSans-69" x="429.833984"/>
     <use xlink:href="#DejaVuSans-6e" x="457.617188"/>
     <use xlink:href="#DejaVuSans-6a" x="520.996094"/>
     <use xlink:href="#DejaVuSans-65" x="548.779297"/>
     <use xlink:href="#DejaVuSans-63" x="610.302734"/>
     <use xlink:href="#DejaVuSans-74" x="665.283203"/>
     <use xlink:href="#DejaVuSans-73" x="704.492188"/>
     <use xlink:href="#DejaVuSans-20" x="756.591797"/>
     <use xlink:href="#DejaVuSans-76" x="788.378906"/>
     <use xlink:href="#DejaVuSans-69" x="847.558594"/>
     <use xlink:href="#DejaVuSans-72" x="875.341797"/>
     <use xlink:href="#DejaVuSans-74" x="916.455078"/>
     <use xlink:href="#DejaVuSans-75" x="955.664062"/>
     <use xlink:href="#DejaVuSans-61" x="1019.042969"/>
     <use xlink:href="#DejaVuSans-6c" x="1080.322266"/>
     <use xlink:href="#DejaVuSans-2d" x="1108.105469"/>
     <use xlink:href="#DejaVuSans-65" x="1144.189453"/>
     <use xlink:href="#DejaVuSans-6e" x="1205.712891"/>
     <use xlink:href="#DejaVuSans-65" x="1269.091797"/>
     <use xlink:href="#DejaVuSans-72" x="1330.615234"/>
     <use xlink:href="#DejaVuSans-67" x="1369.978516"/>
     <use xlink:href="#DejaVuSans-79" x="1433.455078"/>
     <use xlink:href="#DejaVuSans-20" x="1492.634766"/>
     <use xlink:href="#DejaVuSans-69" x="1524.421875"/>
     <use xlink:href="#DejaVuSans-6e" x="1552.205078"/>
     <use xlink:href="#DejaVuSans-6e" x="1615.583984"/>
     <use xlink:href="#DejaVuSans-65" x="1678.962891"/>
     <use xlink:href="#DejaVuSans-72" x="1740.486328"/>
     <use xlink:href="#DejaVuSans-2d" x="1775.224609"/>
     <use xlink:href="#DejaVuSans-73" x="1811.308594"/>
     <use xlink:href="#DejaVuSans-65" x="1863.408203"/>
     <use xlink:href="#DejaVuSans-6e" x="1924.931641"/>
     <use xlink:href="#DejaVuSans-73" x="1988.310547"/>
     <use xlink:href="#DejaVuSans-65" x="2040.410156"/>
     <use xlink:href="#DejaVuSans-20" x="2101.933594"/>
     <use xlink:href="#DejaVuSans-53" x="2133.720703"/>
     <use xlink:href="#DejaVuSans-41" x="2199.072266"/>
     <use xlink:href="#DejaVuSans-20" x="2267.480469"/>
     <use xlink:href="#DejaVuSans-65" x="2299.267578"/>
     <use xlink:href="#DejaVuSans-61" x="2360.791016"/>
     <use xlink:href="#DejaVuSans-63" x="2422.070312"/>
     <use xlink:href="#DejaVuSans-68" x="2477.050781"/>
     <use xlink:href="#DejaVuSans-20" x="2540.429688"/>
     <use xlink:href="#DejaVuSans-74" x="2572.216797"/>
     <use xlink:href="#DejaVuSans-69" x="2611.425781"/>
     <use xlink:href="#DejaVuSans-63" x="2639.208984"/>
     <use xlink:href="#DejaVuSans-6b" x="2694.189453"/>
     <use xlink:href="#DejaVuSans-2e" x="2752.099609"/>
    </g>
   </g>
  </g>
 </g>
 <defs>
  <clipPath id="pa8aee6f035">
   <rect x="7.2" y="7.2" width="582.4" height="323.2"/>
  </clipPath>
 </defs>
</svg>
