<?xml version="1.0" encoding="utf-8" standalone="no"?>
<!DOCTYPE svg PUBLIC "-//W3C//DTD SVG 1.1//EN"
  "http://www.w3.org/Graphics/SVG/1.1/DTD/svg11.dtd">
<svg xmlns:xlink="http://www.w3.org/1999/xlink" width="596.8pt" height="337.6pt" viewBox="0 0 596.8 337.6" xmlns="http://www.w3.org/2000/svg" version="1.1">
 <metadata>
  <rdf:RDF xmlns:dc="http://purl.org/dc/elements/1.1/" xmlns:cc="http://creativecommons.org/ns#" xmlns:rdf="http://www.w3.org/1999/02/22-rdf-syntax-ns#">
   <cc:Work>
    <dc:type rdf:resource="http://purl.org/dc/dcmitype/StillImage"/>
    <dc:date>2026-06-11T00:25:12.325486</dc:date>
    <dc:format>image/svg+xml</dc:format>
    <dc:creator>
     <cc:Agent>
      <dc:title>Matplotlib v3.8.2, https://matplotlib.org/</dc:title>
     </cc:Agent>
    </dc:creator>
   </cc:Work>
  </rdf:RDF>
 </metadata>
 <defs>
  <style type="text/css">*{stroke-linejoin: round; stroke-linecap: butt}</style>
 </defs>
 <g id="figure_1">
  <g id="patch_1">
   <path d="M 0 337.6 
L 596.8 337.6 
L 596.8 0 
L 0 0 
z
" style="fill: #ffffff"/>
  </g>
  <g id="axes_1">
   <g id="patch_2">
    <path d="M 26.4192 157.488 
L 127.7568 157.488 
Q 138.24 157.488 138.24 151.6704 
L 138.24 108.3616 
Q 138.24 102.544 127.7568 102.544 
L 26.4192 102.544 
Q 15.936 102.544 15.936 108.3616 
L 15.936 151.6704 
Q 15.936 157.488 26.4192 157.488 
z
" clip-path="url(#p4b417fc5ad)" style="fill: #f8fafc; stroke: #2d3748; stroke-width: 1.25; stroke-linejoin: miter"/>
   </g>
   <g id="patch_3">
    <path d="M 154.5472 157.488 
L 255.8848 157.488 
Q 266.368 157.488 266.368 151.6704 
L 266.368 108.3616 
Q 266.368 102.544 255.8848 102.544 
L 154.5472 102.544 
Q 144.064 102.544 144.064 108.3616 
L 144.064 151.6704 
Q 144.064 157.488 154.5472 157.488 
z
" clip-path="url(#p4b417fc5ad)" style="fill: #dcfce7; stroke: #2d3748; stroke-width: 1.25; stroke-linejoin: miter"/>
   </g>
   <g id="patch_4">
    <path d="M 282.6752 157.488 
L 384.0128 157.488 
Q 394.496 157.488 394.496 151.6704 
L 394.496 108.3616 
Q 394.496 102.544 384.0128 102.544 
L 282.6752 102.544 
Q 272.192 102.544 272.192 108.3616 
L 272.192 151.6704 
Q 272.192 157.488 282.6752 157.488 
z
" clip-path="url(#p4b417fc5ad)" style="fill: #dbeafe; stroke: #2d3748; stroke-width: 1.25; stroke-linejoin: miter"/>
   </g>
   <g id="patch_5">
    <path d="M 410.8032 157.488 
L 512.1408 157.488 
Q 522.624 157.488 522.624 151.6704 
L 522.624 108.3616 
Q 522.624 102.544 512.1408 102.544 
L 410.8032 102.544 
Q 400.32 102.544 400.32 108.3616 
L 400.32 151.6704 
Q 400.32 157.488 410.8032 157.488 
z
" clip-path="url(#p4b417fc5ad)" style="fill: #fce7f3; stroke: #2d3748; stroke-width: 1.25; stroke-linejoin: miter"/>
   </g>
   <g id="patch_6">
    <path d="M 131.503156 130.016 
Q 141.151989 130.016 149.235574 130.016 
" clip-path="url(#p4b417fc5ad)" style="fill: none; stroke: #4a5568; stroke-width: 1.4; stroke-linecap: round"/>
    <path d="M 144.435574 127.616 
L 149.235574 130.016 
L 144.435574 132.416 
z
" clip-path="url(#p4b417fc5ad)" style="fill: #4a5568; stroke: #4a5568; stroke-width: 1.4; stroke-linecap: round"/>
   </g>
   <g id="patch_7">
    <path d="M 259.631156 130.016 
Q 269.279989 130.016 277.363574 130.016 
" clip-path="url(#p4b417fc5ad)" style="fill: none; stroke: #4a5568; stroke-width: 1.4; stroke-linecap: round"/>
    <path d="M 272.563574 127.616 
L 277.363574 130.016 
L 272.563574 132.416 
z
" clip-path="url(#p4b417fc5ad)" style="fill: #4a5568; stroke: #4a5568; stroke-width: 1.4; stroke-linecap: round"/>
   </g>
   <g id="patch_8">
    <path d="M 387.759156 130.016 
Q 397.407989 130.016 405.491574 130.016 
" clip-path="url(#p4b417fc5ad)" style="fill: none; stroke: #4a5568; stroke-width: 1.4; stroke-linecap: round"/>
    <path d="M 400.691574 127.616 
L 405.491574 130.016 
L 400.691574 132.416 
z
" clip-path="url(#p4b417fc5ad)" style="fill: #4a5568; stroke: #4a5568; stroke-width: 1.4; stroke-linecap: round"/>
   </g>
   <g id="patch_9">
    <path d="M 142.8992 238.288 
L 267.5328 238.288 
Q 278.016 238.288 278.016 232.4704 
L 278.016 195.6256 
Q 278.016 189.808 267.5328 189.808 
L 142.8992 189.808 
Q 132.416 189.808 132.416 195.6256 
L 132.416 232.4704 
Q 132.416 238.288 142.8992 238.288 
z
" clip-path="url(#p4b417fc5ad)" style="fill: #ecfccb; stroke: #2d3748; stroke-width: 1.25; stroke-linejoin: miter"/>
   </g>
   <g id="patch_10">
    <path d="M 271.0272 238.288 
L 395.6608 238.288 
Q 406.144 238.288 406.144 232.4704 
L 406.144 195.6256 
Q 406.144 189.808 395.6608 189.808 
L 271.0272 189.808 
Q 260.544 189.808 260.544 195.6256 
L 260.544 232.4704 
Q 260.544 238.288 271.0272 238.288 
z
" clip-path="url(#p4b417fc5ad)" style="fill: #e0f2fe; stroke: #2d3748; stroke-width: 1.25; stroke-linejoin: miter"/>
   </g>
   <g id="patch_11">
    <path d="M 399.1552 238.288 
L 523.7888 238.288 
Q 534.272 238.288 534.272 232.4704 
L 534.272 195.6256 
Q 534.272 189.808 523.7888 189.808 
L 399.1552 189.808 
Q 388.672 189.808 388.672 195.6256 
L 388.672 232.4704 
Q 388.672 238.288 399.1552 238.288 
z
" clip-path="url(#p4b417fc5ad)" style="fill: #fae8ff; stroke: #2d3748; stroke-width: 1.25; stroke-linejoin: miter"/>
   </g>
   <g id="patch_12">
    <path d="M 205.216 154.642641 
Q 205.216 172.034315 205.216 187.860742 
" clip-path="url(#p4b417fc5ad)" style="fill: none; stroke: #16a34a; stroke-width: 1.4; stroke-linecap: round"/>
    <path d="M 207.616 183.060742 
L 205.216 187.860742 
L 202.816 183.060742 
z
" clip-path="url(#p4b417fc5ad)" style="fill: #16a34a; stroke: #16a34a; stroke-width: 1.4; stroke-linecap: round"/>
   </g>
   <g id="patch_13">
    <path d="M 333.344 154.642641 
Q 333.344 172.034315 333.344 187.860742 
" clip-path="url(#p4b417fc5ad)" style="fill: none; stroke: #2563eb; stroke-width: 1.4; stroke-linecap: round"/>
    <path d="M 335.744 183.060742 
L 333.344 187.860742 
L 330.944 183.060742 
z
" clip-path="url(#p4b417fc5ad)" style="fill: #2563eb; stroke: #2563eb; stroke-width: 1.4; stroke-linecap: round"/>
   </g>
   <g id="patch_14">
    <path d="M 461.472 154.642641 
Q 461.472 172.034315 461.472 187.860742 
" clip-path="url(#p4b417fc5ad)" style="fill: none; stroke: #9333ea; stroke-width: 1.4; stroke-linecap: round"/>
    <path d="M 463.872 183.060742 
L 461.472 187.860742 
L 459.072 183.060742 
z
" clip-path="url(#p4b417fc5ad)" style="fill: #9333ea; stroke: #9333ea; stroke-width: 1.4; stroke-linecap: round"/>
   </g>
   <g id="text_1">
    <!-- F3. Residual B recall absorption -->
    <g style="fill: #111827" transform="translate(18.848 29.246125) scale(0.12 -0.12)">
     <defs>
      <path id="DejaVuSans-Bold-46" d="M 588 4666 
L 3834 4666 
L 3834 3756 
L 1791 3756 
L 1791 2888 
L 3713 2888 
L 3713 1978 
L 1791 1978 
L 1791 0 
L 588 0 
L 588 4666 
z
" transform="scale(0.015625)"/>
      <path id="DejaVuSans-Bold-33" d="M 2981 2516 
Q 3453 2394 3698 2092 
Q 3944 1791 3944 1325 
Q 3944 631 3412 270 
Q 2881 -91 1863 -91 
Q 1503 -91 1142 -33 
Q 781 25 428 141 
L 428 1069 
Q 766 900 1098 814 
Q 1431 728 1753 728 
Q 2231 728 2486 893 
Q 2741 1059 2741 1369 
Q 2741 1688 2480 1852 
Q 2219 2016 1709 2016 
L 1228 2016 
L 1228 2791 
L 1734 2791 
Q 2188 2791 2409 2933 
Q 2631 3075 2631 3366 
Q 2631 3634 2415 3781 
Q 2200 3928 1806 3928 
Q 1516 3928 1219 3862 
Q 922 3797 628 3669 
L 628 4550 
Q 984 4650 1334 4700 
Q 1684 4750 2022 4750 
Q 2931 4750 3382 4451 
Q 3834 4153 3834 3553 
Q 3834 3144 3618 2883 
Q 3403 2622 2981 2516 
z
" transform="scale(0.015625)"/>
      <path id="DejaVuSans-Bold-2e" d="M 653 1209 
L 1778 1209 
L 1778 0 
L 653 0 
L 653 1209 
z
" transform="scale(0.015625)"/>
      <path id="DejaVuSans-Bold-20" transform="scale(0.015625)"/>
      <path id="DejaVuSans-Bold-52" d="M 2297 2597 
Q 2675 2597 2839 2737 
Q 3003 2878 3003 3200 
Q 3003 3519 2839 3656 
Q 2675 3794 2297 3794 
L 1791 3794 
L 1791 2597 
L 2297 2597 
z
M 1791 1766 
L 1791 0 
L 588 0 
L 588 4666 
L 2425 4666 
Q 3347 4666 3776 4356 
Q 4206 4047 4206 3378 
Q 4206 2916 3982 2619 
Q 3759 2322 3309 2181 
Q 3556 2125 3751 1926 
Q 3947 1728 4147 1325 
L 4800 0 
L 3519 0 
L 2950 1159 
Q 2778 1509 2601 1637 
Q 2425 1766 2131 1766 
L 1791 1766 
z
" transform="scale(0.015625)"/>
      <path id="DejaVuSans-Bold-65" d="M 4031 1759 
L 4031 1441 
L 1416 1441 
Q 1456 1047 1700 850 
Q 1944 653 2381 653 
Q 2734 653 3104 758 
Q 3475 863 3866 1075 
L 3866 213 
Q 3469 63 3072 -14 
Q 2675 -91 2278 -91 
Q 1328 -91 801 392 
Q 275 875 275 1747 
Q 275 2603 792 3093 
Q 1309 3584 2216 3584 
Q 3041 3584 3536 3087 
Q 4031 2591 4031 1759 
z
M 2881 2131 
Q 2881 2450 2695 2645 
Q 2509 2841 2209 2841 
Q 1884 2841 1681 2658 
Q 1478 2475 1428 2131 
L 2881 2131 
z
" transform="scale(0.015625)"/>
      <path id="DejaVuSans-Bold-73" d="M 3272 3391 
L 3272 2541 
Q 2913 2691 2578 2766 
Q 2244 2841 1947 2841 
Q 1628 2841 1473 2761 
Q 1319 2681 1319 2516 
Q 1319 2381 1436 2309 
Q 1553 2238 1856 2203 
L 2053 2175 
Q 2913 2066 3209 1816 
Q 3506 1566 3506 1031 
Q 3506 472 3093 190 
Q 2681 -91 1863 -91 
Q 1516 -91 1145 -36 
Q 775 19 384 128 
L 384 978 
Q 719 816 1070 734 
Q 1422 653 1784 653 
Q 2113 653 2278 743 
Q 2444 834 2444 1013 
Q 2444 1163 2330 1236 
Q 2216 1309 1875 1350 
L 1678 1375 
Q 931 1469 631 1722 
Q 331 1975 331 2491 
Q 331 3047 712 3315 
Q 1094 3584 1881 3584 
Q 2191 3584 2531 3537 
Q 2872 3491 3272 3391 
z
" transform="scale(0.015625)"/>
      <path id="DejaVuSans-Bold-69" d="M 538 3500 
L 1656 3500 
L 1656 0 
L 538 0 
L 538 3500 
z
M 538 4863 
L 1656 4863 
L 1656 3950 
L 538 3950 
L 538 4863 
z
" transform="scale(0.015625)"/>
      <path id="DejaVuSans-Bold-64" d="M 2919 2988 
L 2919 4863 
L 4044 4863 
L 4044 0 
L 2919 0 
L 2919 506 
Q 2688 197 2409 53 
Q 2131 -91 1766 -91 
Q 1119 -91 703 423 
Q 288 938 288 1747 
Q 288 2556 703 3070 
Q 1119 3584 1766 3584 
Q 2128 3584 2408 3439 
Q 2688 3294 2919 2988 
z
M 2181 722 
Q 2541 722 2730 984 
Q 2919 1247 2919 1747 
Q 2919 2247 2730 2509 
Q 2541 2772 2181 2772 
Q 1825 2772 1636 2509 
Q 1447 2247 1447 1747 
Q 1447 1247 1636 984 
Q 1825 722 2181 722 
z
" transform="scale(0.015625)"/>
      <path id="DejaVuSans-Bold-75" d="M 500 1363 
L 500 3500 
L 1625 3500 
L 1625 3150 
Q 1625 2866 1622 2436 
Q 1619 2006 1619 1863 
Q 1619 1441 1641 1255 
Q 1663 1069 1716 984 
Q 1784 875 1895 815 
Q 2006 756 2150 756 
Q 2500 756 2700 1025 
Q 2900 1294 2900 1772 
L 2900 3500 
L 4019 3500 
L 4019 0 
L 2900 0 
L 2900 506 
Q 2647 200 2364 54 
Q 2081 -91 1741 -91 
Q 1134 -91 817 281 
Q 500 653 500 1363 
z
" transform="scale(0.015625)"/>
      <path id="DejaVuSans-Bold-61" d="M 2106 1575 
Q 1756 1575 1579 1456 
Q 1403 1338 1403 1106 
Q 1403 894 1545 773 
Q 1688 653 1941 653 
Q 2256 653 2472 879 
Q 2688 1106 2688 1447 
L 2688 1575 
L 2106 1575 
z
M 3816 1997 
L 3816 0 
L 2688 0 
L 2688 519 
Q 2463 200 2181 54 
Q 1900 -91 1497 -91 
Q 953 -91 614 226 
Q 275 544 275 1050 
Q 275 1666 698 1953 
Q 1122 2241 2028 2241 
L 2688 2241 
L 2688 2328 
Q 2688 2594 2478 2717 
Q 2269 2841 1825 2841 
Q 1466 2841 1156 2769 
Q 847 2697 581 2553 
L 581 3406 
Q 941 3494 1303 3539 
Q 1666 3584 2028 3584 
Q 2975 3584 3395 3211 
Q 3816 2838 3816 1997 
z
" transform="scale(0.015625)"/>
      <path id="DejaVuSans-Bold-6c" d="M 538 4863 
L 1656 4863 
L 1656 0 
L 538 0 
L 538 4863 
z
" transform="scale(0.015625)"/>
      <path id="DejaVuSans-Bold-42" d="M 2456 2859 
Q 2741 2859 2887 2984 
Q 3034 3109 3034 3353 
Q 3034 3594 2887 3720 
Q 2741 3847 2456 3847 
L 1791 3847 
L 1791 2859 
L 2456 2859 
z
M 2497 819 
Q 2859 819 3042 972 
Q 3225 1125 3225 1434 
Q 3225 1738 3044 1889 
Q 2863 2041 2497 2041 
L 1791 2041 
L 1791 819 
L 2497 819 
z
M 3616 2497 
Q 4003 2384 4215 2081 
Q 4428 1778 4428 1338 
Q 4428 663 3972 331 
Q 3516 0 2584 0 
L 588 0 
L 588 4666 
L 2394 4666 
Q 3366 4666 3802 4372 
Q 4238 4078 4238 3431 
Q 4238 3091 4078 2852 
Q 3919 2613 3616 2497 
z
" transform="scale(0.015625)"/>
      <path id="DejaVuSans-Bold-72" d="M 3138 2547 
Q 2991 2616 2845 2648 
Q 2700 2681 2553 2681 
Q 2122 2681 1889 2404 
Q 1656 2128 1656 1613 
L 1656 0 
L 538 0 
L 538 3500 
L 1656 3500 
L 1656 2925 
Q 1872 3269 2151 3426 
Q 2431 3584 2822 3584 
Q 2878 3584 2943 3579 
Q 3009 3575 3134 3559 
L 3138 2547 
z
" transform="scale(0.015625)"/>
      <path id="DejaVuSans-Bold-63" d="M 3366 3391 
L 3366 2478 
Q 3138 2634 2908 2709 
Q 2678 2784 2431 2784 
Q 1963 2784 1702 2511 
Q 1441 2238 1441 1747 
Q 1441 1256 1702 982 
Q 1963 709 2431 709 
Q 2694 709 2930 787 
Q 3166 866 3366 1019 
L 3366 103 
Q 3103 6 2833 -42 
Q 2563 -91 2291 -91 
Q 1344 -91 809 395 
Q 275 881 275 1747 
Q 275 2613 809 3098 
Q 1344 3584 2291 3584 
Q 2566 3584 2833 3536 
Q 3100 3488 3366 3391 
z
" transform="scale(0.015625)"/>
      <path id="DejaVuSans-Bold-62" d="M 2400 722 
Q 2759 722 2948 984 
Q 3138 1247 3138 1747 
Q 3138 2247 2948 2509 
Q 2759 2772 2400 2772 
Q 2041 2772 1848 2508 
Q 1656 2244 1656 1747 
Q 1656 1250 1848 986 
Q 2041 722 2400 722 
z
M 1656 2988 
Q 1888 3294 2169 3439 
Q 2450 3584 2816 3584 
Q 3463 3584 3878 3070 
Q 4294 2556 4294 1747 
Q 4294 938 3878 423 
Q 3463 -91 2816 -91 
Q 2450 -91 2169 54 
Q 1888 200 1656 506 
L 1656 0 
L 538 0 
L 538 4863 
L 1656 4863 
L 1656 2988 
z
" transform="scale(0.015625)"/>
      <path id="DejaVuSans-Bold-6f" d="M 2203 2784 
Q 1831 2784 1636 2517 
Q 1441 2250 1441 1747 
Q 1441 1244 1636 976 
Q 1831 709 2203 709 
Q 2569 709 2762 976 
Q 2956 1244 2956 1747 
Q 2956 2250 2762 2517 
Q 2569 2784 2203 2784 
z
M 2203 3584 
Q 3106 3584 3614 3096 
Q 4122 2609 4122 1747 
Q 4122 884 3614 396 
Q 3106 -91 2203 -91 
Q 1297 -91 786 396 
Q 275 884 275 1747 
Q 275 2609 786 3096 
Q 1297 3584 2203 3584 
z
" transform="scale(0.015625)"/>
      <path id="DejaVuSans-Bold-70" d="M 1656 506 
L 1656 -1331 
L 538 -1331 
L 538 3500 
L 1656 3500 
L 1656 2988 
Q 1888 3294 2169 3439 
Q 2450 3584 2816 3584 
Q 3463 3584 3878 3070 
Q 4294 2556 4294 1747 
Q 4294 938 3878 423 
Q 3463 -91 2816 -91 
Q 2450 -91 2169 54 
Q 1888 200 1656 506 
z
M 2400 2772 
Q 2041 2772 1848 2508 
Q 1656 2244 1656 1747 
Q 1656 1250 1848 986 
Q 2041 722 2400 722 
Q 2759 722 2948 984 
Q 3138 1247 3138 1747 
Q 3138 2247 2948 2509 
Q 2759 2772 2400 2772 
z
" transform="scale(0.015625)"/>
      <path id="DejaVuSans-Bold-74" d="M 1759 4494 
L 1759 3500 
L 2913 3500 
L 2913 2700 
L 1759 2700 
L 1759 1216 
Q 1759 972 1856 886 
Q 1953 800 2241 800 
L 2816 800 
L 2816 0 
L 1856 0 
Q 1194 0 917 276 
Q 641 553 641 1216 
L 641 2700 
L 84 2700 
L 84 3500 
L 641 3500 
L 641 4494 
L 1759 4494 
z
" transform="scale(0.015625)"/>
      <path id="DejaVuSans-Bold-6e" d="M 4056 2131 
L 4056 0 
L 2931 0 
L 2931 347 
L 2931 1631 
Q 2931 2084 2911 2256 
Q 2891 2428 2841 2509 
Q 2775 2619 2662 2680 
Q 2550 2741 2406 2741 
Q 2056 2741 1856 2470 
Q 1656 2200 1656 1722 
L 1656 0 
L 538 0 
L 538 3500 
L 1656 3500 
L 1656 2988 
Q 1909 3294 2193 3439 
Q 2478 3584 2822 3584 
Q 3428 3584 3742 3212 
Q 4056 2841 4056 2131 
z
" transform="scale(0.015625)"/>
     </defs>
     <use xlink:href="#DejaVuSans-Bold-46"/>
     <use xlink:href="#DejaVuSans-Bold-33" x="68.310547"/>
     <use xlink:href="#DejaVuSans-Bold-2e" x="137.890625"/>
     <use xlink:href="#DejaVuSans-Bold-20" x="175.878906"/>
     <use xlink:href="#DejaVuSans-Bold-52" x="210.693359"/>
     <use xlink:href="#DejaVuSans-Bold-65" x="287.695312"/>
     <use xlink:href="#DejaVuSans-Bold-73" x="355.517578"/>
     <use xlink:href="#DejaVuSans-Bold-69" x="415.039062"/>
     <use xlink:href="#DejaVuSans-Bold-64" x="449.316406"/>
     <use xlink:href="#DejaVuSans-Bold-75" x="520.898438"/>
     <use xlink:href="#DejaVuSans-Bold-61" x="592.089844"/>
     <use xlink:href="#DejaVuSans-Bold-6c" x="659.570312"/>
     <use xlink:href="#DejaVuSans-Bold-20" x="693.847656"/>
     <use xlink:href="#DejaVuSans-Bold-42" x="728.662109"/>
     <use xlink:href="#DejaVuSans-Bold-20" x="804.882812"/>
     <use xlink:href="#DejaVuSans-Bold-72" x="839.697266"/>
     <use xlink:href="#DejaVuSans-Bold-65" x="889.013672"/>
     <use xlink:href="#DejaVuSans-Bold-63" x="956.835938"/>
     <use xlink:href="#DejaVuSans-Bold-61" x="1016.113281"/>
     <use xlink:href="#DejaVuSans-Bold-6c" x="1083.59375"/>
     <use xlink:href="#DejaVuSans-Bold-6c" x="1117.871094"/>
     <use xlink:href="#DejaVuSans-Bold-20" x="1152.148438"/>
     <use xlink:href="#DejaVuSans-Bold-61" x="1186.962891"/>
     <use xlink:href="#DejaVuSans-Bold-62" x="1254.443359"/>
     <use xlink:href="#DejaVuSans-Bold-73" x="1326.025391"/>
     <use xlink:href="#DejaVuSans-Bold-6f" x="1385.546875"/>
     <use xlink:href="#DejaVuSans-Bold-72" x="1454.248047"/>
     <use xlink:href="#DejaVuSans-Bold-70" x="1503.564453"/>
     <use xlink:href="#DejaVuSans-Bold-74" x="1575.146484"/>
     <use xlink:href="#DejaVuSans-Bold-69" x="1622.949219"/>
     <use xlink:href="#DejaVuSans-Bold-6f" x="1657.226562"/>
     <use xlink:href="#DejaVuSans-Bold-6e" x="1725.927734"/>
    </g>
   </g>
   <g id="text_2">
    <!-- Mixed query -->
    <g style="fill: #1a202c" transform="translate(49.385578 127.460422) scale(0.09 -0.09)">
     <defs>
      <path id="DejaVuSans-4d" d="M 628 4666 
L 1569 4666 
L 2759 1491 
L 3956 4666 
L 4897 4666 
L 4897 0 
L 4281 0 
L 4281 4097 
L 3078 897 
L 2444 897 
L 1241 4097 
L 1241 0 
L 628 0 
L 628 4666 
z
" transform="scale(0.015625)"/>
      <path id="DejaVuSans-69" d="M 603 3500 
L 1178 3500 
L 1178 0 
L 603 0 
L 603 3500 
z
M 603 4863 
L 1178 4863 
L 1178 4134 
L 603 4134 
L 603 4863 
z
" transform="scale(0.015625)"/>
      <path id="DejaVuSans-78" d="M 3513 3500 
L 2247 1797 
L 3578 0 
L 2900 0 
L 1881 1375 
L 863 0 
L 184 0 
L 1544 1831 
L 300 3500 
L 978 3500 
L 1906 2253 
L 2834 3500 
L 3513 3500 
z
" transform="scale(0.015625)"/>
      <path id="DejaVuSans-65" d="M 3597 1894 
L 3597 1613 
L 953 1613 
Q 991 1019 1311 708 
Q 1631 397 2203 397 
Q 2534 397 2845 478 
Q 3156 559 3463 722 
L 3463 178 
Q 3153 47 2828 -22 
Q 2503 -91 2169 -91 
Q 1331 -91 842 396 
Q 353 884 353 1716 
Q 353 2575 817 3079 
Q 1281 3584 2069 3584 
Q 2775 3584 3186 3129 
Q 3597 2675 3597 1894 
z
M 3022 2063 
Q 3016 2534 2758 2815 
Q 2500 3097 2075 3097 
Q 1594 3097 1305 2825 
Q 1016 2553 972 2059 
L 3022 2063 
z
" transform="scale(0.015625)"/>
      <path id="DejaVuSans-64" d="M 2906 2969 
L 2906 4863 
L 3481 4863 
L 3481 0 
L 2906 0 
L 2906 525 
Q 2725 213 2448 61 
Q 2172 -91 1784 -91 
Q 1150 -91 751 415 
Q 353 922 353 1747 
Q 353 2572 751 3078 
Q 1150 3584 1784 3584 
Q 2172 3584 2448 3432 
Q 2725 3281 2906 2969 
z
M 947 1747 
Q 947 1113 1208 752 
Q 1469 391 1925 391 
Q 2381 391 2643 752 
Q 2906 1113 2906 1747 
Q 2906 2381 2643 2742 
Q 2381 3103 1925 3103 
Q 1469 3103 1208 2742 
Q 947 2381 947 1747 
z
" transform="scale(0.015625)"/>
      <path id="DejaVuSans-20" transform="scale(0.015625)"/>
      <path id="DejaVuSans-71" d="M 947 1747 
Q 947 1113 1208 752 
Q 1469 391 1925 391 
Q 2381 391 2643 752 
Q 2906 1113 2906 1747 
Q 2906 2381 2643 2742 
Q 2381 3103 1925 3103 
Q 1469 3103 1208 2742 
Q 947 2381 947 1747 
z
M 2906 525 
Q 2725 213 2448 61 
Q 2172 -91 1784 -91 
Q 1150 -91 751 415 
Q 353 922 353 1747 
Q 353 2572 751 3078 
Q 1150 3584 1784 3584 
Q 2172 3584 2448 3432 
Q 2725 3281 2906 2969 
L 2906 3500 
L 3481 3500 
L 3481 -1331 
L 2906 -1331 
L 2906 525 
z
" transform="scale(0.015625)"/>
      <path id="DejaVuSans-75" d="M 544 1381 
L 544 3500 
L 1119 3500 
L 1119 1403 
Q 1119 906 1312 657 
Q 1506 409 1894 409 
Q 2359 409 2629 706 
Q 2900 1003 2900 1516 
L 2900 3500 
L 3475 3500 
L 3475 0 
L 2900 0 
L 2900 538 
Q 2691 219 2414 64 
Q 2138 -91 1772 -91 
Q 1169 -91 856 284 
Q 544 659 544 1381 
z
M 1991 3584 
L 1991 3584 
z
" transform="scale(0.015625)"/>
      <path id="DejaVuSans-72" d="M 2631 2963 
Q 2534 3019 2420 3045 
Q 2306 3072 2169 3072 
Q 1681 3072 1420 2755 
Q 1159 2438 1159 1844 
L 1159 0 
L 581 0 
L 581 3500 
L 1159 3500 
L 1159 2956 
Q 1341 3275 1631 3429 
Q 1922 3584 2338 3584 
Q 2397 3584 2469 3576 
Q 2541 3569 2628 3553 
L 2631 2963 
z
" transform="scale(0.015625)"/>
      <path id="DejaVuSans-79" d="M 2059 -325 
Q 1816 -950 1584 -1140 
Q 1353 -1331 966 -1331 
L 506 -1331 
L 506 -850 
L 844 -850 
Q 1081 -850 1212 -737 
Q 1344 -625 1503 -206 
L 1606 56 
L 191 3500 
L 800 3500 
L 1894 763 
L 2988 3500 
L 3597 3500 
L 2059 -325 
z
" transform="scale(0.015625)"/>
     </defs>
     <use xlink:href="#DejaVuSans-4d"/>
     <use xlink:href="#DejaVuSans-69" x="86.279297"/>
     <use xlink:href="#DejaVuSans-78" x="114.0625"/>
     <use xlink:href="#DejaVuSans-65" x="170.117188"/>
     <use xlink:href="#DejaVuSans-64" x="231.640625"/>
     <use xlink:href="#DejaVuSans-20" x="295.117188"/>
     <use xlink:href="#DejaVuSans-71" x="326.904297"/>
     <use xlink:href="#DejaVuSans-75" x="390.380859"/>
     <use xlink:href="#DejaVuSans-65" x="453.759766"/>
     <use xlink:href="#DejaVuSans-72" x="515.283203"/>
     <use xlink:href="#DejaVuSans-79" x="556.396484"/>
    </g>
    <!-- A+B+C+E -->
    <g style="fill: #1a202c" transform="translate(53.624016 137.538453) scale(0.09 -0.09)">
     <defs>
      <path id="DejaVuSans-41" d="M 2188 4044 
L 1331 1722 
L 3047 1722 
L 2188 4044 
z
M 1831 4666 
L 2547 4666 
L 4325 0 
L 3669 0 
L 3244 1197 
L 1141 1197 
L 716 0 
L 50 0 
L 1831 4666 
z
" transform="scale(0.015625)"/>
      <path id="DejaVuSans-2b" d="M 2944 4013 
L 2944 2272 
L 4684 2272 
L 4684 1741 
L 2944 1741 
L 2944 0 
L 2419 0 
L 2419 1741 
L 678 1741 
L 678 2272 
L 2419 2272 
L 2419 4013 
L 2944 4013 
z
" transform="scale(0.015625)"/>
      <path id="DejaVuSans-42" d="M 1259 2228 
L 1259 519 
L 2272 519 
Q 2781 519 3026 730 
Q 3272 941 3272 1375 
Q 3272 1813 3026 2020 
Q 2781 2228 2272 2228 
L 1259 2228 
z
M 1259 4147 
L 1259 2741 
L 2194 2741 
Q 2656 2741 2882 2914 
Q 3109 3088 3109 3444 
Q 3109 3797 2882 3972 
Q 2656 4147 2194 4147 
L 1259 4147 
z
M 628 4666 
L 2241 4666 
Q 2963 4666 3353 4366 
Q 3744 4066 3744 3513 
Q 3744 3084 3544 2831 
Q 3344 2578 2956 2516 
Q 3422 2416 3680 2098 
Q 3938 1781 3938 1306 
Q 3938 681 3513 340 
Q 3088 0 2303 0 
L 628 0 
L 628 4666 
z
" transform="scale(0.015625)"/>
      <path id="DejaVuSans-43" d="M 4122 4306 
L 4122 3641 
Q 3803 3938 3442 4084 
Q 3081 4231 2675 4231 
Q 1875 4231 1450 3742 
Q 1025 3253 1025 2328 
Q 1025 1406 1450 917 
Q 1875 428 2675 428 
Q 3081 428 3442 575 
Q 3803 722 4122 1019 
L 4122 359 
Q 3791 134 3420 21 
Q 3050 -91 2638 -91 
Q 1578 -91 968 557 
Q 359 1206 359 2328 
Q 359 3453 968 4101 
Q 1578 4750 2638 4750 
Q 3056 4750 3426 4639 
Q 3797 4528 4122 4306 
z
" transform="scale(0.015625)"/>
      <path id="DejaVuSans-45" d="M 628 4666 
L 3578 4666 
L 3578 4134 
L 1259 4134 
L 1259 2753 
L 3481 2753 
L 3481 2222 
L 1259 2222 
L 1259 531 
L 3634 531 
L 3634 0 
L 628 0 
L 628 4666 
z
" transform="scale(0.015625)"/>
     </defs>
     <use xlink:href="#DejaVuSans-41"/>
     <use xlink:href="#DejaVuSans-2b" x="68.408203"/>
     <use xlink:href="#DejaVuSans-42" x="152.197266"/>
     <use xlink:href="#DejaVuSans-2b" x="220.800781"/>
     <use xlink:href="#DejaVuSans-43" x="304.589844"/>
     <use xlink:href="#DejaVuSans-2b" x="374.414062"/>
     <use xlink:href="#DejaVuSans-45" x="458.203125"/>
    </g>
   </g>
   <g id="text_3">
    <!-- Round 1 -->
    <g style="fill: #1a202c" transform="translate(186.684438 127.460422) scale(0.09 -0.09)">
     <defs>
      <path id="DejaVuSans-52" d="M 2841 2188 
Q 3044 2119 3236 1894 
Q 3428 1669 3622 1275 
L 4263 0 
L 3584 0 
L 2988 1197 
Q 2756 1666 2539 1819 
Q 2322 1972 1947 1972 
L 1259 1972 
L 1259 0 
L 628 0 
L 628 4666 
L 2053 4666 
Q 2853 4666 3247 4331 
Q 3641 3997 3641 3322 
Q 3641 2881 3436 2590 
Q 3231 2300 2841 2188 
z
M 1259 4147 
L 1259 2491 
L 2053 2491 
Q 2509 2491 2742 2702 
Q 2975 2913 2975 3322 
Q 2975 3731 2742 3939 
Q 2509 4147 2053 4147 
L 1259 4147 
z
" transform="scale(0.015625)"/>
      <path id="DejaVuSans-6f" d="M 1959 3097 
Q 1497 3097 1228 2736 
Q 959 2375 959 1747 
Q 959 1119 1226 758 
Q 1494 397 1959 397 
Q 2419 397 2687 759 
Q 2956 1122 2956 1747 
Q 2956 2369 2687 2733 
Q 2419 3097 1959 3097 
z
M 1959 3584 
Q 2709 3584 3137 3096 
Q 3566 2609 3566 1747 
Q 3566 888 3137 398 
Q 2709 -91 1959 -91 
Q 1206 -91 779 398 
Q 353 888 353 1747 
Q 353 2609 779 3096 
Q 1206 3584 1959 3584 
z
" transform="scale(0.015625)"/>
      <path id="DejaVuSans-6e" d="M 3513 2113 
L 3513 0 
L 2938 0 
L 2938 2094 
Q 2938 2591 2744 2837 
Q 2550 3084 2163 3084 
Q 1697 3084 1428 2787 
Q 1159 2491 1159 1978 
L 1159 0 
L 581 0 
L 581 3500 
L 1159 3500 
L 1159 2956 
Q 1366 3272 1645 3428 
Q 1925 3584 2291 3584 
Q 2894 3584 3203 3211 
Q 3513 2838 3513 2113 
z
" transform="scale(0.015625)"/>
      <path id="DejaVuSans-31" d="M 794 531 
L 1825 531 
L 1825 4091 
L 703 3866 
L 703 4441 
L 1819 4666 
L 2450 4666 
L 2450 531 
L 3481 531 
L 3481 0 
L 794 0 
L 794 531 
z
" transform="scale(0.015625)"/>
     </defs>
     <use xlink:href="#DejaVuSans-52"/>
     <use xlink:href="#DejaVuSans-6f" x="64.982422"/>
     <use xlink:href="#DejaVuSans-75" x="126.164062"/>
     <use xlink:href="#DejaVuSans-6e" x="189.542969"/>
     <use xlink:href="#DejaVuSans-64" x="252.921875"/>
     <use xlink:href="#DejaVuSans-20" x="316.398438"/>
     <use xlink:href="#DejaVuSans-31" x="348.185547"/>
    </g>
    <!-- winner AB -->
    <g style="fill: #1a202c" transform="translate(182.36725 137.538453) scale(0.09 -0.09)">
     <defs>
      <path id="DejaVuSans-77" d="M 269 3500 
L 844 3500 
L 1563 769 
L 2278 3500 
L 2956 3500 
L 3675 769 
L 4391 3500 
L 4966 3500 
L 4050 0 
L 3372 0 
L 2619 2869 
L 1863 0 
L 1184 0 
L 269 3500 
z
" transform="scale(0.015625)"/>
     </defs>
     <use xlink:href="#DejaVuSans-77"/>
     <use xlink:href="#DejaVuSans-69" x="81.787109"/>
     <use xlink:href="#DejaVuSans-6e" x="109.570312"/>
     <use xlink:href="#DejaVuSans-6e" x="172.949219"/>
     <use xlink:href="#DejaVuSans-65" x="236.328125"/>
     <use xlink:href="#DejaVuSans-72" x="297.851562"/>
     <use xlink:href="#DejaVuSans-20" x="338.964844"/>
     <use xlink:href="#DejaVuSans-41" x="370.751953"/>
     <use xlink:href="#DejaVuSans-42" x="439.160156"/>
    </g>
   </g>
   <g id="text_4">
    <!-- Round 2 -->
    <g style="fill: #1a202c" transform="translate(314.812437 127.460422) scale(0.09 -0.09)">
     <defs>
      <path id="DejaVuSans-32" d="M 1228 531 
L 3431 531 
L 3431 0 
L 469 0 
L 469 531 
Q 828 903 1448 1529 
Q 2069 2156 2228 2338 
Q 2531 2678 2651 2914 
Q 2772 3150 2772 3378 
Q 2772 3750 2511 3984 
Q 2250 4219 1831 4219 
Q 1534 4219 1204 4116 
Q 875 4013 500 3803 
L 500 4441 
Q 881 4594 1212 4672 
Q 1544 4750 1819 4750 
Q 2544 4750 2975 4387 
Q 3406 4025 3406 3419 
Q 3406 3131 3298 2873 
Q 3191 2616 2906 2266 
Q 2828 2175 2409 1742 
Q 1991 1309 1228 531 
z
" transform="scale(0.015625)"/>
     </defs>
     <use xlink:href="#DejaVuSans-52"/>
     <use xlink:href="#DejaVuSans-6f" x="64.982422"/>
     <use xlink:href="#DejaVuSans-75" x="126.164062"/>
     <use xlink:href="#DejaVuSans-6e" x="189.542969"/>
     <use xlink:href="#DejaVuSans-64" x="252.921875"/>
     <use xlink:href="#DejaVuSans-20" x="316.398438"/>
     <use xlink:href="#DejaVuSans-32" x="348.185547"/>
    </g>
    <!-- winner C -->
    <g style="fill: #1a202c" transform="translate(313.518687 137.538453) scale(0.09 -0.09)">
     <use xlink:href="#DejaVuSans-77"/>
     <use xlink:href="#DejaVuSans-69" x="81.787109"/>
     <use xlink:href="#DejaVuSans-6e" x="109.570312"/>
     <use xlink:href="#DejaVuSans-6e" x="172.949219"/>
     <use xlink:href="#DejaVuSans-65" x="236.328125"/>
     <use xlink:href="#DejaVuSans-72" x="297.851562"/>
     <use xlink:href="#DejaVuSans-20" x="338.964844"/>
     <use xlink:href="#DejaVuSans-43" x="370.751953"/>
    </g>
   </g>
   <g id="text_5">
    <!-- Round 3 -->
    <g style="fill: #1a202c" transform="translate(442.940437 127.460422) scale(0.09 -0.09)">
     <defs>
      <path id="DejaVuSans-33" d="M 2597 2516 
Q 3050 2419 3304 2112 
Q 3559 1806 3559 1356 
Q 3559 666 3084 287 
Q 2609 -91 1734 -91 
Q 1441 -91 1130 -33 
Q 819 25 488 141 
L 488 750 
Q 750 597 1062 519 
Q 1375 441 1716 441 
Q 2309 441 2620 675 
Q 2931 909 2931 1356 
Q 2931 1769 2642 2001 
Q 2353 2234 1838 2234 
L 1294 2234 
L 1294 2753 
L 1863 2753 
Q 2328 2753 2575 2939 
Q 2822 3125 2822 3475 
Q 2822 3834 2567 4026 
Q 2313 4219 1838 4219 
Q 1578 4219 1281 4162 
Q 984 4106 628 3988 
L 628 4550 
Q 988 4650 1302 4700 
Q 1616 4750 1894 4750 
Q 2613 4750 3031 4423 
Q 3450 4097 3450 3541 
Q 3450 3153 3228 2886 
Q 3006 2619 2597 2516 
z
" transform="scale(0.015625)"/>
     </defs>
     <use xlink:href="#DejaVuSans-52"/>
     <use xlink:href="#DejaVuSans-6f" x="64.982422"/>
     <use xlink:href="#DejaVuSans-75" x="126.164062"/>
     <use xlink:href="#DejaVuSans-6e" x="189.542969"/>
     <use xlink:href="#DejaVuSans-64" x="252.921875"/>
     <use xlink:href="#DejaVuSans-20" x="316.398438"/>
     <use xlink:href="#DejaVuSans-33" x="348.185547"/>
    </g>
    <!-- winner E -->
    <g style="fill: #1a202c" transform="translate(441.945516 137.538453) scale(0.09 -0.09)">
     <use xlink:href="#DejaVuSans-77"/>
     <use xlink:href="#DejaVuSans-69" x="81.787109"/>
     <use xlink:href="#DejaVuSans-6e" x="109.570312"/>
     <use xlink:href="#DejaVuSans-6e" x="172.949219"/>
     <use xlink:href="#DejaVuSans-65" x="236.328125"/>
     <use xlink:href="#DejaVuSans-72" x="297.851562"/>
     <use xlink:href="#DejaVuSans-20" x="338.964844"/>
     <use xlink:href="#DejaVuSans-45" x="370.751953"/>
    </g>
   </g>
   <g id="text_6">
    <!-- Matched SA -->
    <g style="fill: #1a202c" transform="translate(178.410063 211.492422) scale(0.09 -0.09)">
     <defs>
      <path id="DejaVuSans-61" d="M 2194 1759 
Q 1497 1759 1228 1600 
Q 959 1441 959 1056 
Q 959 750 1161 570 
Q 1363 391 1709 391 
Q 2188 391 2477 730 
Q 2766 1069 2766 1631 
L 2766 1759 
L 2194 1759 
z
M 3341 1997 
L 3341 0 
L 2766 0 
L 2766 531 
Q 2569 213 2275 61 
Q 1981 -91 1556 -91 
Q 1019 -91 701 211 
Q 384 513 384 1019 
Q 384 1609 779 1909 
Q 1175 2209 1959 2209 
L 2766 2209 
L 2766 2266 
Q 2766 2663 2505 2880 
Q 2244 3097 1772 3097 
Q 1472 3097 1187 3025 
Q 903 2953 641 2809 
L 641 3341 
Q 956 3463 1253 3523 
Q 1550 3584 1831 3584 
Q 2591 3584 2966 3190 
Q 3341 2797 3341 1997 
z
" transform="scale(0.015625)"/>
      <path id="DejaVuSans-74" d="M 1172 4494 
L 1172 3500 
L 2356 3500 
L 2356 3053 
L 1172 3053 
L 1172 1153 
Q 1172 725 1289 603 
Q 1406 481 1766 481 
L 2356 481 
L 2356 0 
L 1766 0 
Q 1100 0 847 248 
Q 594 497 594 1153 
L 594 3053 
L 172 3053 
L 172 3500 
L 594 3500 
L 594 4494 
L 1172 4494 
z
" transform="scale(0.015625)"/>
      <path id="DejaVuSans-63" d="M 3122 3366 
L 3122 2828 
Q 2878 2963 2633 3030 
Q 2388 3097 2138 3097 
Q 1578 3097 1268 2742 
Q 959 2388 959 1747 
Q 959 1106 1268 751 
Q 1578 397 2138 397 
Q 2388 397 2633 464 
Q 2878 531 3122 666 
L 3122 134 
Q 2881 22 2623 -34 
Q 2366 -91 2075 -91 
Q 1284 -91 818 406 
Q 353 903 353 1747 
Q 353 2603 823 3093 
Q 1294 3584 2113 3584 
Q 2378 3584 2631 3529 
Q 2884 3475 3122 3366 
z
" transform="scale(0.015625)"/>
      <path id="DejaVuSans-68" d="M 3513 2113 
L 3513 0 
L 2938 0 
L 2938 2094 
Q 2938 2591 2744 2837 
Q 2550 3084 2163 3084 
Q 1697 3084 1428 2787 
Q 1159 2491 1159 1978 
L 1159 0 
L 581 0 
L 581 4863 
L 1159 4863 
L 1159 2956 
Q 1366 3272 1645 3428 
Q 1925 3584 2291 3584 
Q 2894 3584 3203 3211 
Q 3513 2838 3513 2113 
z
" transform="scale(0.015625)"/>
      <path id="DejaVuSans-53" d="M 3425 4513 
L 3425 3897 
Q 3066 4069 2747 4153 
Q 2428 4238 2131 4238 
Q 1616 4238 1336 4038 
Q 1056 3838 1056 3469 
Q 1056 3159 1242 3001 
Q 1428 2844 1947 2747 
L 2328 2669 
Q 3034 2534 3370 2195 
Q 3706 1856 3706 1288 
Q 3706 609 3251 259 
Q 2797 -91 1919 -91 
Q 1588 -91 1214 -16 
Q 841 59 441 206 
L 441 856 
Q 825 641 1194 531 
Q 1563 422 1919 422 
Q 2459 422 2753 634 
Q 3047 847 3047 1241 
Q 3047 1584 2836 1778 
Q 2625 1972 2144 2069 
L 1759 2144 
Q 1053 2284 737 2584 
Q 422 2884 422 3419 
Q 422 4038 858 4394 
Q 1294 4750 2059 4750 
Q 2388 4750 2728 4690 
Q 3069 4631 3425 4513 
z
" transform="scale(0.015625)"/>
     </defs>
     <use xlink:href="#DejaVuSans-4d"/>
     <use xlink:href="#DejaVuSans-61" x="86.279297"/>
     <use xlink:href="#DejaVuSans-74" x="147.558594"/>
     <use xlink:href="#DejaVuSans-63" x="186.767578"/>
     <use xlink:href="#DejaVuSans-68" x="241.748047"/>
     <use xlink:href="#DejaVuSans-65" x="305.126953"/>
     <use xlink:href="#DejaVuSans-64" x="366.650391"/>
     <use xlink:href="#DejaVuSans-20" x="430.126953"/>
     <use xlink:href="#DejaVuSans-53" x="461.914062"/>
     <use xlink:href="#DejaVuSans-41" x="527.265625"/>
    </g>
    <!-- mass absorbed -->
    <g style="fill: #1a202c" transform="translate(170.911938 221.570453) scale(0.09 -0.09)">
     <defs>
      <path id="DejaVuSans-6d" d="M 3328 2828 
Q 3544 3216 3844 3400 
Q 4144 3584 4550 3584 
Q 5097 3584 5394 3201 
Q 5691 2819 5691 2113 
L 5691 0 
L 5113 0 
L 5113 2094 
Q 5113 2597 4934 2840 
Q 4756 3084 4391 3084 
Q 3944 3084 3684 2787 
Q 3425 2491 3425 1978 
L 3425 0 
L 2847 0 
L 2847 2094 
Q 2847 2600 2669 2842 
Q 2491 3084 2119 3084 
Q 1678 3084 1418 2786 
Q 1159 2488 1159 1978 
L 1159 0 
L 581 0 
L 581 3500 
L 1159 3500 
L 1159 2956 
Q 1356 3278 1631 3431 
Q 1906 3584 2284 3584 
Q 2666 3584 2933 3390 
Q 3200 3197 3328 2828 
z
" transform="scale(0.015625)"/>
      <path id="DejaVuSans-73" d="M 2834 3397 
L 2834 2853 
Q 2591 2978 2328 3040 
Q 2066 3103 1784 3103 
Q 1356 3103 1142 2972 
Q 928 2841 928 2578 
Q 928 2378 1081 2264 
Q 1234 2150 1697 2047 
L 1894 2003 
Q 2506 1872 2764 1633 
Q 3022 1394 3022 966 
Q 3022 478 2636 193 
Q 2250 -91 1575 -91 
Q 1294 -91 989 -36 
Q 684 19 347 128 
L 347 722 
Q 666 556 975 473 
Q 1284 391 1588 391 
Q 1994 391 2212 530 
Q 2431 669 2431 922 
Q 2431 1156 2273 1281 
Q 2116 1406 1581 1522 
L 1381 1569 
Q 847 1681 609 1914 
Q 372 2147 372 2553 
Q 372 3047 722 3315 
Q 1072 3584 1716 3584 
Q 2034 3584 2315 3537 
Q 2597 3491 2834 3397 
z
" transform="scale(0.015625)"/>
      <path id="DejaVuSans-62" d="M 3116 1747 
Q 3116 2381 2855 2742 
Q 2594 3103 2138 3103 
Q 1681 3103 1420 2742 
Q 1159 2381 1159 1747 
Q 1159 1113 1420 752 
Q 1681 391 2138 391 
Q 2594 391 2855 752 
Q 3116 1113 3116 1747 
z
M 1159 2969 
Q 1341 3281 1617 3432 
Q 1894 3584 2278 3584 
Q 2916 3584 3314 3078 
Q 3713 2572 3713 1747 
Q 3713 922 3314 415 
Q 2916 -91 2278 -91 
Q 1894 -91 1617 61 
Q 1341 213 1159 525 
L 1159 0 
L 581 0 
L 581 4863 
L 1159 4863 
L 1159 2969 
z
" transform="scale(0.015625)"/>
     </defs>
     <use xlink:href="#DejaVuSans-6d"/>
     <use xlink:href="#DejaVuSans-61" x="97.412109"/>
     <use xlink:href="#DejaVuSans-73" x="158.691406"/>
     <use xlink:href="#DejaVuSans-73" x="210.791016"/>
     <use xlink:href="#DejaVuSans-20" x="262.890625"/>
     <use xlink:href="#DejaVuSans-61" x="294.677734"/>
     <use xlink:href="#DejaVuSans-62" x="355.957031"/>
     <use xlink:href="#DejaVuSans-73" x="419.433594"/>
     <use xlink:href="#DejaVuSans-6f" x="471.533203"/>
     <use xlink:href="#DejaVuSans-72" x="532.714844"/>
     <use xlink:href="#DejaVuSans-62" x="573.828125"/>
     <use xlink:href="#DejaVuSans-65" x="637.304688"/>
     <use xlink:href="#DejaVuSans-64" x="698.828125"/>
    </g>
   </g>
   <g id="text_7">
    <!-- Residual query -->
    <g style="fill: #1a202c" transform="translate(299.918844 211.492422) scale(0.09 -0.09)">
     <defs>
      <path id="DejaVuSans-6c" d="M 603 4863 
L 1178 4863 
L 1178 0 
L 603 0 
L 603 4863 
z
" transform="scale(0.015625)"/>
     </defs>
     <use xlink:href="#DejaVuSans-52"/>
     <use xlink:href="#DejaVuSans-65" x="64.982422"/>
     <use xlink:href="#DejaVuSans-73" x="126.505859"/>
     <use xlink:href="#DejaVuSans-69" x="178.605469"/>
     <use xlink:href="#DejaVuSans-64" x="206.388672"/>
     <use xlink:href="#DejaVuSans-75" x="269.865234"/>
     <use xlink:href="#DejaVuSans-61" x="333.244141"/>
     <use xlink:href="#DejaVuSans-6c" x="394.523438"/>
     <use xlink:href="#DejaVuSans-20" x="422.306641"/>
     <use xlink:href="#DejaVuSans-71" x="454.09375"/>
     <use xlink:href="#DejaVuSans-75" x="517.570312"/>
     <use xlink:href="#DejaVuSans-65" x="580.949219"/>
     <use xlink:href="#DejaVuSans-72" x="642.472656"/>
     <use xlink:href="#DejaVuSans-79" x="683.585938"/>
    </g>
    <!-- makes C salient -->
    <g style="fill: #1a202c" transform="translate(297.657594 221.570453) scale(0.09 -0.09)">
     <defs>
      <path id="DejaVuSans-6b" d="M 581 4863 
L 1159 4863 
L 1159 1991 
L 2875 3500 
L 3609 3500 
L 1753 1863 
L 3688 0 
L 2938 0 
L 1159 1709 
L 1159 0 
L 581 0 
L 581 4863 
z
" transform="scale(0.015625)"/>
     </defs>
     <use xlink:href="#DejaVuSans-6d"/>
     <use xlink:href="#DejaVuSans-61" x="97.412109"/>
     <use xlink:href="#DejaVuSans-6b" x="158.691406"/>
     <use xlink:href="#DejaVuSans-65" x="212.976562"/>
     <use xlink:href="#DejaVuSans-73" x="274.5"/>
     <use xlink:href="#DejaVuSans-20" x="326.599609"/>
     <use xlink:href="#DejaVuSans-43" x="358.386719"/>
     <use xlink:href="#DejaVuSans-20" x="428.210938"/>
     <use xlink:href="#DejaVuSans-73" x="459.998047"/>
     <use xlink:href="#DejaVuSans-61" x="512.097656"/>
     <use xlink:href="#DejaVuSans-6c" x="573.376953"/>
     <use xlink:href="#DejaVuSans-69" x="601.160156"/>
     <use xlink:href="#DejaVuSans-65" x="628.943359"/>
     <use xlink:href="#DejaVuSans-6e" x="690.466797"/>
     <use xlink:href="#DejaVuSans-74" x="753.845703"/>
    </g>
   </g>
   <g id="text_8">
    <!-- Residual mass -->
    <g style="fill: #1a202c" transform="translate(429.208406 211.492422) scale(0.09 -0.09)">
     <use xlink:href="#DejaVuSans-52"/>
     <use xlink:href="#DejaVuSans-65" x="64.982422"/>
     <use xlink:href="#DejaVuSans-73" x="126.505859"/>
     <use xlink:href="#DejaVuSans-69" x="178.605469"/>
     <use xlink:href="#DejaVuSans-64" x="206.388672"/>
     <use xlink:href="#DejaVuSans-75" x="269.865234"/>
     <use xlink:href="#DejaVuSans-61" x="333.244141"/>
     <use xlink:href="#DejaVuSans-6c" x="394.523438"/>
     <use xlink:href="#DejaVuSans-20" x="422.306641"/>
     <use xlink:href="#DejaVuSans-6d" x="454.09375"/>
     <use xlink:href="#DejaVuSans-61" x="551.505859"/>
     <use xlink:href="#DejaVuSans-73" x="612.785156"/>
     <use xlink:href="#DejaVuSans-73" x="664.884766"/>
    </g>
    <!-- keeps declining -->
    <g style="fill: #1a202c" transform="translate(426.449344 221.570453) scale(0.09 -0.09)">
     <defs>
      <path id="DejaVuSans-70" d="M 1159 525 
L 1159 -1331 
L 581 -1331 
L 581 3500 
L 1159 3500 
L 1159 2969 
Q 1341 3281 1617 3432 
Q 1894 3584 2278 3584 
Q 2916 3584 3314 3078 
Q 3713 2572 3713 1747 
Q 3713 922 3314 415 
Q 2916 -91 2278 -91 
Q 1894 -91 1617 61 
Q 1341 213 1159 525 
z
M 3116 1747 
Q 3116 2381 2855 2742 
Q 2594 3103 2138 3103 
Q 1681 3103 1420 2742 
Q 1159 2381 1159 1747 
Q 1159 1113 1420 752 
Q 1681 391 2138 391 
Q 2594 391 2855 752 
Q 3116 1113 3116 1747 
z
" transform="scale(0.015625)"/>
      <path id="DejaVuSans-67" d="M 2906 1791 
Q 2906 2416 2648 2759 
Q 2391 3103 1925 3103 
Q 1463 3103 1205 2759 
Q 947 2416 947 1791 
Q 947 1169 1205 825 
Q 1463 481 1925 481 
Q 2391 481 2648 825 
Q 2906 1169 2906 1791 
z
M 3481 434 
Q 3481 -459 3084 -895 
Q 2688 -1331 1869 -1331 
Q 1566 -1331 1297 -1286 
Q 1028 -1241 775 -1147 
L 775 -588 
Q 1028 -725 1275 -790 
Q 1522 -856 1778 -856 
Q 2344 -856 2625 -561 
Q 2906 -266 2906 331 
L 2906 616 
Q 2728 306 2450 153 
Q 2172 0 1784 0 
Q 1141 0 747 490 
Q 353 981 353 1791 
Q 353 2603 747 3093 
Q 1141 3584 1784 3584 
Q 2172 3584 2450 3431 
Q 2728 3278 2906 2969 
L 2906 3500 
L 3481 3500 
L 3481 434 
z
" transform="scale(0.015625)"/>
     </defs>
     <use xlink:href="#DejaVuSans-6b"/>
     <use xlink:href="#DejaVuSans-65" x="54.285156"/>
     <use xlink:href="#DejaVuSans-65" x="115.808594"/>
     <use xlink:href="#DejaVuSans-70" x="177.332031"/>
     <use xlink:href="#DejaVuSans-73" x="240.808594"/>
     <use xlink:href="#DejaVuSans-20" x="292.908203"/>
     <use xlink:href="#DejaVuSans-64" x="324.695312"/>
     <use xlink:href="#DejaVuSans-65" x="388.171875"/>
     <use xlink:href="#DejaVuSans-63" x="449.695312"/>
     <use xlink:href="#DejaVuSans-6c" x="504.675781"/>
     <use xlink:href="#DejaVuSans-69" x="532.458984"/>
     <use xlink:href="#DejaVuSans-6e" x="560.242188"/>
     <use xlink:href="#DejaVuSans-69" x="623.621094"/>
     <use xlink:href="#DejaVuSans-6e" x="651.404297"/>
     <use xlink:href="#DejaVuSans-67" x="714.783203"/>
    </g>
   </g>
   <g id="text_9">
    <!-- One winner per round; matched SA are weakened only for residual scoring. -->
    <g style="fill: #374151" transform="translate(128.804844 275.456) scale(0.09 -0.09)">
     <defs>
      <path id="DejaVuSans-4f" d="M 2522 4238 
Q 1834 4238 1429 3725 
Q 1025 3213 1025 2328 
Q 1025 1447 1429 934 
Q 1834 422 2522 422 
Q 3209 422 3611 934 
Q 4013 1447 4013 2328 
Q 4013 3213 3611 3725 
Q 3209 4238 2522 4238 
z
M 2522 4750 
Q 3503 4750 4090 4092 
Q 4678 3434 4678 2328 
Q 4678 1225 4090 567 
Q 3503 -91 2522 -91 
Q 1538 -91 948 565 
Q 359 1222 359 2328 
Q 359 3434 948 4092 
Q 1538 4750 2522 4750 
z
" transform="scale(0.015625)"/>
      <path id="DejaVuSans-3b" d="M 750 3309 
L 1409 3309 
L 1409 2516 
L 750 2516 
L 750 3309 
z
M 750 794 
L 1409 794 
L 1409 256 
L 897 -744 
L 494 -744 
L 750 256 
L 750 794 
z
" transform="scale(0.015625)"/>
      <path id="DejaVuSans-66" d="M 2375 4863 
L 2375 4384 
L 1825 4384 
Q 1516 4384 1395 4259 
Q 1275 4134 1275 3809 
L 1275 3500 
L 2222 3500 
L 2222 3053 
L 1275 3053 
L 1275 0 
L 697 0 
L 697 3053 
L 147 3053 
L 147 3500 
L 697 3500 
L 697 3744 
Q 697 4328 969 4595 
Q 1241 4863 1831 4863 
L 2375 4863 
z
" transform="scale(0.015625)"/>
      <path id="DejaVuSans-2e" d="M 684 794 
L 1344 794 
L 1344 0 
L 684 0 
L 684 794 
z
" transform="scale(0.015625)"/>
     </defs>
     <use xlink:href="#DejaVuSans-4f"/>
     <use xlink:href="#DejaVuSans-6e" x="78.710938"/>
     <use xlink:href="#DejaVuSans-65" x="142.089844"/>
     <use xlink:href="#DejaVuSans-20" x="203.613281"/>
     <use xlink:href="#DejaVuSans-77" x="235.400391"/>
     <use xlink:href="#DejaVuSans-69" x="317.1875"/>
     <use xlink:href="#DejaVuSans-6e" x="344.970703"/>
     <use xlink:href="#DejaVuSans-6e" x="408.349609"/>
     <use xlink:href="#DejaVuSans-65" x="471.728516"/>
     <use xlink:href="#DejaVuSans-72" x="533.251953"/>
     <use xlink:href="#DejaVuSans-20" x="574.365234"/>
     <use xlink:href="#DejaVuSans-70" x="606.152344"/>
     <use xlink:href="#DejaVuSans-65" x="669.628906"/>
     <use xlink:href="#DejaVuSans-72" x="731.152344"/>
     <use xlink:href="#DejaVuSans-20" x="772.265625"/>
     <use xlink:href="#DejaVuSans-72" x="804.052734"/>
     <use xlink:href="#DejaVuSans-6f" x="842.916016"/>
     <use xlink:href="#DejaVuSans-75" x="904.097656"/>
     <use xlink:href="#DejaVuSans-6e" x="967.476562"/>
     <use xlink:href="#DejaVuSans-64" x="1030.855469"/>
     <use xlink:href="#DejaVuSans-3b" x="1094.332031"/>
     <use xlink:href="#DejaVuSans-20" x="1128.023438"/>
     <use xlink:href="#DejaVuSans-6d" x="1159.810547"/>
     <use xlink:href="#DejaVuSans-61" x="1257.222656"/>
     <use xlink:href="#DejaVuSans-74" x="1318.501953"/>
     <use xlink:href="#DejaVuSans-63" x="1357.710938"/>
     <use xlink:href="#DejaVuSans-68" x="1412.691406"/>
     <use xlink:href="#DejaVuSans-65" x="1476.070312"/>
     <use xlink:href="#DejaVuSans-64" x="1537.59375"/>
     <use xlink:href="#DejaVuSans-20" x="1601.070312"/>
     <use xlink:href="#DejaVuSans-53" x="1632.857422"/>
     <use xlink:href="#DejaVuSans-41" x="1698.208984"/>
     <use xlink:href="#DejaVuSans-20" x="1766.617188"/>
     <use xlink:href="#DejaVuSans-61" x="1798.404297"/>
     <use xlink:href="#DejaVuSans-72" x="1859.683594"/>
     <use xlink:href="#DejaVuSans-65" x="1898.546875"/>
     <use xlink:href="#DejaVuSans-20" x="1960.070312"/>
     <use xlink:href="#DejaVuSans-77" x="1991.857422"/>
     <use xlink:href="#DejaVuSans-65" x="2073.644531"/>
     <use xlink:href="#DejaVuSans-61" x="2135.167969"/>
     <use xlink:href="#DejaVuSans-6b" x="2196.447266"/>
     <use xlink:href="#DejaVuSans-65" x="2250.732422"/>
     <use xlink:href="#DejaVuSans-6e" x="2312.255859"/>
     <use xlink:href="#DejaVuSans-65" x="2375.634766"/>
     <use xlink:href="#DejaVuSans-64" x="2437.158203"/>
     <use xlink:href="#DejaVuSans-20" x="2500.634766"/>
     <use xlink:href="#DejaVuSans-6f" x="2532.421875"/>
     <use xlink:href="#DejaVuSans-6e" x="2593.603516"/>
     <use xlink:href="#DejaVuSans-6c" x="2656.982422"/>
     <use xlink:href="#DejaVuSans-79" x="2684.765625"/>
     <use xlink:href="#DejaVuSans-20" x="2743.945312"/>
     <use xlink:href="#DejaVuSans-66" x="2775.732422"/>
     <use xlink:href="#DejaVuSans-6f" x="2810.9375"/>
     <use xlink:href="#DejaVuSans-72" x="2872.119141"/>
     <use xlink:href="#DejaVuSans-20" x="2913.232422"/>
     <use xlink:href="#DejaVuSans-72" x="2945.019531"/>
     <use xlink:href="#DejaVuSans-65" x="2983.882812"/>
     <use xlink:href="#DejaVuSans-73" x="3045.40625"/>
     <use xlink:href="#DejaVuSans-69" x="3097.505859"/>
     <use xlink:href="#DejaVuSans-64" x="3125.289062"/>
     <use xlink:href="#DejaVuSans-75" x="3188.765625"/>
     <use xlink:href="#DejaVuSans-61" x="3252.144531"/>
     <use xlink:href="#DejaVuSans-6c" x="3313.423828"/>
     <use xlink:href="#DejaVuSans-20" x="3341.207031"/>
     <use xlink:href="#DejaVuSans-73" x="3372.994141"/>
     <use xlink:href="#DejaVuSans-63" x="3425.09375"/>
     <use xlink:href="#DejaVuSans-6f" x="3480.074219"/>
     <use xlink:href="#DejaVuSans-72" x="3541.255859"/>
     <use xlink:href="#DejaVuSans-69" x="3582.369141"/>
     <use xlink:href="#DejaVuSans-6e" x="3610.152344"/>
     <use xlink:href="#DejaVuSans-67" x="3673.53125"/>
     <use xlink:href="#DejaVuSans-2e" x="3737.007812"/>
    </g>
   </g>
  </g>
 </g>
 <defs>
  <clipPath id="p4b417fc5ad">
   <rect x="7.2" y="7.2" width="582.4" height="323.2"/>
  </clipPath>
 </defs>
</svg>
